<?xml version="1.0" encoding="UTF-8" standalone="no"?>
<svg
   xmlns:dc="http://purl.org/dc/elements/1.1/"
   xmlns:cc="http://creativecommons.org/ns#"
   xmlns:rdf="http://www.w3.org/1999/02/22-rdf-syntax-ns#"
   xmlns:svg="http://www.w3.org/2000/svg"
   xmlns="http://www.w3.org/2000/svg"
   viewBox="0 0 666.66669 666.66669"
   height="666.66669"
   width="666.66669"
   xml:space="preserve"
   id="svg2"
   version="1.1"><metadata
     id="metadata8"><rdf:RDF><cc:Work
         rdf:about=""><dc:format>image/svg+xml</dc:format><dc:type
           rdf:resource="http://purl.org/dc/dcmitype/StillImage" /><dc:title></dc:title></cc:Work></rdf:RDF></metadata><defs
     id="defs6"><clipPath
       id="clipPath20"
       clipPathUnits="userSpaceOnUse"><path
         id="path18"
         d="M 0,500 H 500 V 0 H 0 Z" /></clipPath><clipPath
       id="clipPath28"
       clipPathUnits="userSpaceOnUse"><path
         id="path26"
         d="M 0,401.747 H 500 V 43.6319 H 0 Z" /></clipPath><clipPath
       id="clipPath44"
       clipPathUnits="userSpaceOnUse"><path
         id="path42"
         d="M 0,500 H 500 V 0 H 0 Z" /></clipPath><clipPath
       id="clipPath298"
       clipPathUnits="userSpaceOnUse"><path
         id="path296"
         d="m 370.404,262.723 h 41.862 v -37.864 h -41.862 z" /></clipPath></defs><g
     transform="matrix(1.3333333,0,0,-1.3333333,0,666.66667)"
     id="g10"><path
       id="path12"
       style="fill:#e8eaf6;fill-opacity:1;fill-rule:nonzero;stroke:none"
       d="M 0,0 H 500 V 500 H 0 Z" /><g
       id="g14"><g
         clip-path="url(#clipPath20)"
         id="g16"><g
           id="g22"><g
             id="g24" /><g
             id="g36"><g
               style="opacity:0.41999799"
               id="g34"
               clip-path="url(#clipPath28)"><g
                 id="g32"
                 transform="translate(499.9996,242.4186)"><path
                   id="path30"
                   style="fill:#d1c4e9;fill-opacity:1;fill-rule:nonzero;stroke:none"
                   d="m 0,0 v 109.495 h -41.013 v 29.227 H -97.745 V 84.336 h -18.164 V 53.327 h -38.335 v 47.355 h -32.888 V 44.227 h -15.52 V 63.223 H -224.64 V 26.895 h -58.242 v 100.124 l -67.693,32.309 V 67.217 h -32.6 v 87.119 h -41.427 v -79.1 h -12.694 v 29.86 H -500 V -198.787 H 0 Z" /></g></g></g></g></g></g><g
       id="g38"><g
         clip-path="url(#clipPath44)"
         id="g40"><g
           transform="translate(397.1744,78.4743)"
           id="g46"><path
             id="path48"
             style="fill:#0097a7;fill-opacity:1;fill-rule:nonzero;stroke:none"
             d="m 0,0 c -9.511,9.062 -23.706,17.373 -22.761,32.428 0.047,0.697 -0.854,0.824 -1.156,0.354 -0.097,0.031 -0.219,0.006 -0.29,-0.086 -0.011,-0.006 -0.022,-0.011 -0.026,-0.027 -1.003,-1.811 -1.717,-3.709 -2.155,-5.649 -0.005,-0.016 0.001,-0.027 -0.009,-0.033 -2.084,-8.974 1.294,-18.896 6.53,-26.259 3.974,-5.571 9.064,-10.2 14.436,-14.397 3.022,-2.352 6.172,-4.54 9.193,-6.891 2.853,-2.211 5.27,-4.842 7.921,-7.229 0.109,-0.104 0.223,-0.218 0.342,-0.316 0.027,-0.659 0.047,-1.306 0.047,-1.965 -0.004,-0.5 0.736,-0.525 0.761,-0.04 0.008,0.111 0.011,0.233 0.008,0.339 0,0 0.011,0.006 0.005,0.017 0.008,0.314 0.022,0.617 0.02,0.925 0.119,-0.098 0.228,-0.201 0.342,-0.289 0.336,-0.279 0.87,0.031 0.652,0.468 -0.299,0.566 -0.637,1.127 -1.001,1.66 -0.022,0.472 -0.01,0.883 -0.053,1.344 -10e-4,0.026 -0.012,0.047 -0.024,0.068 C 12.094,-15.708 7.26,-6.921 0,0" /></g><g
           transform="translate(425.3873,82.445)"
           id="g50"><path
             id="path52"
             style="fill:#0097a7;fill-opacity:1;fill-rule:nonzero;stroke:none"
             d="M 0,0 C -0.005,-0.017 -0.005,-0.017 -0.016,-0.021 L -0.021,-0.038 -0.025,-0.054 C -0.02,-0.064 -0.03,-0.07 -0.03,-0.07 c 0.006,-0.01 -0.005,-0.016 -0.005,-0.016 -0.618,-1.041 -1.236,-2.082 -1.838,-3.127 0.377,0.912 0.7,1.823 0.965,2.744 0.085,0.019 0.169,0.063 0.252,0.134 0.25,0.213 0.5,0.427 0.756,0.63 C 0.161,0.354 0.234,0.42 0.302,0.47 0.195,0.291 0.13,0.136 0,0 M 55.065,58.075 C 43.877,49.205 32.642,40.297 22.736,29.969 15.148,22.041 8.266,13.089 2.328,3.724 1.832,3.34 1.353,2.95 0.868,2.546 0.718,2.425 0.556,2.299 0.41,2.168 0.123,1.948 -0.143,1.713 -0.424,1.483 -0.313,1.985 -0.23,2.487 -0.146,2.989 0.068,2.914 0.322,2.941 0.506,3.053 0.71,3.174 0.832,3.4 0.718,3.717 0.678,3.844 0.622,3.975 0.581,4.102 L 0.576,4.112 C 0.422,4.528 0.27,4.918 0.095,5.323 0.171,6.574 0.162,7.833 0.073,9.091 0.049,9.67 -0.008,10.258 -0.096,10.83 c 0.004,0.043 -0.002,0.08 -0.018,0.111 -1,8.226 -5.073,16.234 -9.172,23.459 -8.311,14.582 -15.778,29.934 -16.873,46.959 -0.03,0.589 -0.571,0.975 -1.058,0.878 l -0.011,-0.006 c -0.1,-0.012 -0.2,-0.052 -0.293,-0.128 -0.089,-0.061 -0.166,-0.143 -0.245,-0.251 -7.028,-10.832 -8.922,-24.656 -4.341,-36.818 2.729,-7.227 7.439,-13.524 12.732,-19.068 C -13.003,19.273 -5.062,13.629 -1.241,5.004 -1.017,4.478 -0.807,3.956 -0.603,3.419 -0.581,3.377 -0.548,3.341 -0.531,3.31 -0.604,2.585 -0.714,1.854 -0.84,1.128 L -1.512,0.569 c -0.442,-0.382 -0.11,-0.959 0.338,-1.044 -0.236,-1 -0.536,-2.006 -0.899,-3.019 -0.026,-0.054 0.065,-0.073 0.08,-0.026 0.011,0.033 0.015,0.049 0.03,0.071 0.039,-0.073 0.141,-0.087 0.197,-0.017 0.329,0.444 0.655,0.871 0.995,1.294 0.01,0.006 0.004,0.017 0.015,0.023 l 0.015,0.047 C 0.119,-0.959 0.968,0.204 1.806,1.361 2.027,1.654 2.248,1.946 2.465,2.249 3.83,3.351 5.218,4.41 6.621,5.464 L 6.632,5.47 c 8.513,6.387 17.54,12.08 25.286,19.405 4.525,4.271 8.273,9.018 11.369,14.413 2.952,5.158 6.087,9.794 9.718,14.331 l 0.005,0.016 c 0.933,1.181 1.909,2.358 2.917,3.525 0.218,0.25 0.221,0.522 0.104,0.741 l -0.006,0.011 c -0.161,0.305 -0.585,0.47 -0.96,0.163" /></g><g
           transform="translate(440.736,207.0309)"
           id="g54"><path
             id="path56"
             style="fill:#0097a7;fill-opacity:1;fill-rule:nonzero;stroke:none"
             d="m 0,0 c -0.171,-0.212 -0.341,-0.423 -0.501,-0.629 -5.019,-6.255 -9.505,-12.146 -12.273,-19.856 -2.734,-7.625 -3.85,-15.789 -3.151,-23.852 0.781,-8.853 3.966,-17.318 5.895,-25.951 1.216,-5.462 1.924,-10.829 1.981,-16.287 l 0.005,-0.011 c 0.023,-2.274 -0.065,-4.541 -0.275,-6.857 1.314,3.884 2.644,7.792 3.942,11.682 0.005,0.016 0.005,0.016 0.01,0.032 3.6,10.909 6.852,21.916 8.502,33.336 2.261,15.713 0.775,30.891 -3.25,46.065 L 0.879,-2.317 C 0.655,-1.414 0.411,-0.521 0.15,0.375 0.138,0.248 0.108,0.125 0,0" /></g><g
           transform="translate(478.6647,170.238)"
           id="g58"><path
             id="path60"
             style="fill:#0097a7;fill-opacity:1;fill-rule:nonzero;stroke:none"
             d="m 0,0 c -18.984,-15.214 -34.205,-34.509 -44.411,-56.591 -0.032,-0.016 -0.064,-0.033 -0.089,-0.06 l -0.011,-0.005 c -1.026,-0.626 -2.047,-1.262 -3.084,-1.893 -0.099,-0.066 -0.182,-0.138 -0.244,-0.223 -0.16,-0.207 -0.201,-0.457 -0.159,-0.69 l 0.006,-0.011 c 0.113,-0.518 0.628,-0.93 1.199,-0.588 0.592,0.355 1.178,0.72 1.765,1.084 9.685,5.975 19.126,12.412 25.649,21.966 7.437,10.874 13.447,22.968 19.611,34.619 0.006,0.016 0.016,0.022 0.021,0.038 0.259,0.5 0.528,1.006 0.787,1.507 0.021,0.038 0.03,0.07 0.04,0.102 C 1.331,-0.101 0.578,0.455 0,0" /></g><g
           transform="translate(406.1735,95.9606)"
           id="g62"><path
             id="path64"
             style="fill:#0097a7;fill-opacity:1;fill-rule:nonzero;stroke:none"
             d="m 0,0 c -7.807,12.67 -21.229,21.298 -23.76,36.848 -0.075,0.498 -0.642,0.452 -0.858,0.123 -0.046,-0.065 -0.093,-0.13 -0.111,-0.221 -0.363,-2.156 -0.61,-4.277 -0.703,-6.358 -0.123,-1.975 -0.119,-3.91 0.018,-5.815 0.537,-8.188 3.318,-15.792 8.968,-22.72 8.222,-10.054 19.411,-17.513 25.901,-28.891 0.212,-1.085 0.323,-2.183 0.242,-3.221 0,0 0.005,-0.011 -0.005,-0.016 0,0 0.005,-0.01 -0.004,-0.016 -0.058,-0.932 -0.25,-1.786 -0.661,-2.61 -0.227,-0.484 0.458,-0.94 0.723,-0.451 0.683,1.224 0.954,2.537 0.979,3.883 l 0.095,-0.179 c 0.023,-0.041 0.051,-0.093 0.083,-0.129 0.077,-0.095 0.18,-0.162 0.286,-0.185 0.46,-0.133 1.06,0.36 0.786,0.928 -0.313,0.64 -0.631,1.265 -0.964,1.869 -0.217,0.409 -0.455,0.807 -0.677,1.2 -0.53,2.369 -1.469,4.723 -2.114,6.827 C 6.172,-12.501 3.655,-5.929 0,0" /></g><g
           transform="translate(475.6539,109.4313)"
           id="g66"><path
             id="path68"
             style="fill:#0097a7;fill-opacity:1;fill-rule:nonzero;stroke:none"
             d="m 0,0 c -0.053,-0.001 -0.111,-0.019 -0.168,-0.062 -12.617,-8.256 -24.787,-17.177 -36.355,-26.854 -7.386,-6.152 -14.966,-12.395 -21.36,-19.634 -0.052,-0.054 -0.097,-0.119 -0.149,-0.174 -0.011,-0.005 -0.011,-0.005 -0.016,-0.021 -0.011,-0.006 -0.005,-0.017 -0.005,-0.017 -0.972,-1.081 -1.902,-2.193 -2.8,-3.342 -0.104,-0.055 -0.21,-0.111 -0.319,-0.182 -0.545,-1.204 -1.096,-2.371 -1.641,-3.522 0.661,0.553 1.361,1.059 2.093,1.529 0.078,0.054 0.157,0.11 0.241,0.154 0.623,0.397 1.267,0.78 1.927,1.131 l 0.619,0.329 c 0.042,0.021 0.095,0.05 0.143,0.061 4.503,2.31 9.635,3.863 13.898,5.991 6.117,3.045 12.023,6.69 17.004,11.419 8.831,8.344 14.735,19.172 22.931,28.054 0.016,0.022 0.031,0.043 0.052,0.055 1.357,1.473 2.778,2.899 4.298,4.244 C 0.735,-0.524 0.402,0.079 0,0" /></g><g
           transform="translate(405.6422,38.7409)"
           id="g70"><path
             id="path72"
             style="fill:#22475c;fill-opacity:1;fill-rule:nonzero;stroke:none"
             d="M 0,0 C 1.539,2.732 3.14,5.687 4.771,8.856 L 4.766,8.867 c 0.331,0.619 0.65,1.259 0.98,1.905 0.898,1.782 1.804,3.621 2.709,5.514 0.192,0.398 0.375,0.79 0.562,1.198 0.177,0.351 0.343,0.721 0.515,1.081 0.04,0.103 0.097,0.2 0.142,0.318 l 0.01,0.006 c 0.147,0.305 0.294,0.612 0.435,0.929 0.61,1.333 1.221,2.693 1.846,4.1 l -0.006,0.011 c 0,0 -0.006,0.01 0.005,0.016 0.005,0.016 0.005,0.016 0.015,0.022 0.041,0.101 0.091,0.209 0.141,0.316 2.282,5.206 4.613,10.977 6.854,17.249 0.01,0.006 0.005,0.017 0.015,0.023 l 0.015,0.048 c 0.239,0.665 0.478,1.329 0.706,2.015 0,0 0.011,0.006 0.005,0.016 0,0 0.011,0.006 0.005,0.016 l 0.005,0.016 0.004,0.017 c 0.011,0.005 0.011,0.005 0.016,0.021 0.029,0.097 0.069,0.198 0.1,0.295 0.263,0.745 0.516,1.484 0.768,2.251 2.729,8.065 5.28,16.87 7.381,26.271 0.107,0.433 0.202,0.861 0.293,1.298 l 0.01,0.006 c 0.027,0.176 0.071,0.348 0.109,0.529 0.033,0.166 0.067,0.332 0.106,0.487 l 0.01,0.005 c 0.807,3.804 1.552,7.697 2.195,11.683 0.005,0.016 0.005,0.016 0.01,0.033 1.844,11.258 2.965,23.22 3.007,35.673 0.003,0.774 -0.629,1.404 -1.402,1.403 -0.77,-0.001 -1.389,-0.626 -1.39,-1.396 -0.007,-3.723 -0.119,-7.405 -0.325,-11.031 -0.005,-0.016 10e-4,-0.026 0.007,-0.037 -0.566,-10.267 -1.833,-20.125 -3.579,-29.459 l 0.005,-0.011 c -0.574,-3.049 -1.194,-6.04 -1.866,-8.979 -0.043,-0.225 -0.106,-0.46 -0.16,-0.69 L 25.03,72.024 C 23.516,65.423 21.786,59.125 19.941,53.196 L 19.818,52.795 C 19.576,52.034 19.34,51.29 19.103,50.545 18.894,49.924 18.696,49.308 18.504,48.708 16.27,41.967 13.906,35.723 11.546,30.059 c -0.08,-0.205 -0.171,-0.414 -0.257,-0.608 -0.064,-0.155 -0.13,-0.311 -0.195,-0.467 -0.292,-0.693 -0.578,-1.369 -0.865,-2.019 0,0 0.004,-0.011 -0.005,-0.017 0,0 0.005,-0.01 -0.005,-0.015 C 9.328,24.859 8.445,22.871 7.577,20.985 7.027,19.791 6.486,18.63 5.935,17.49 5.394,16.355 4.857,15.237 4.314,14.155 4.011,13.537 3.707,12.918 3.402,12.326 3.336,12.197 3.281,12.073 3.215,11.944 1.003,7.565 -1.165,3.572 -3.206,0 Z" /></g><g
           transform="translate(462.5465,148.6335)"
           id="g74"><path
             id="path76"
             style="fill:#22475c;fill-opacity:1;fill-rule:nonzero;stroke:none"
             d="m 0,0 c -8.546,-13.033 -18.743,-24.82 -30.415,-35.149 -1.266,-1.121 0.471,-3.085 1.734,-1.967 11.833,10.471 22.199,22.447 30.863,35.661 C 3.107,-0.042 0.925,1.412 0,0" /></g><g
           transform="translate(456.568,115.1765)"
           id="g78"><path
             id="path80"
             style="fill:#22475c;fill-opacity:1;fill-rule:nonzero;stroke:none"
             d="m 0,0 c -11.149,-10.679 -22.299,-21.356 -33.448,-32.035 -1.218,-1.167 0.513,-3.136 1.734,-1.967 11.15,10.679 22.299,21.357 33.448,32.035 C 2.952,-0.8 1.221,1.169 0,0" /></g><g
           transform="translate(453.9518,89.7819)"
           id="g82"><path
             id="path84"
             style="fill:#22475c;fill-opacity:1;fill-rule:nonzero;stroke:none"
             d="m 0,0 c -14.332,-9.682 -28.019,-20.263 -40.997,-31.694 -1.269,-1.119 0.468,-3.083 1.734,-1.967 12.979,11.432 26.665,22.013 40.997,31.694 C 3.132,-1.023 1.38,0.932 0,0" /></g><g
           transform="translate(426.2653,85.2419)"
           id="g86"><path
             id="path88"
             style="fill:#22475c;fill-opacity:1;fill-rule:nonzero;stroke:none"
             d="m 0,0 c -0.829,9.491 -5.905,17.582 -11.243,25.205 -6.429,9.181 -12.198,17.981 -14.032,29.258 -0.271,1.666 -2.835,1.118 -2.565,-0.546 1.633,-10.043 6.234,-18.479 12.006,-26.724 C -9.893,18.707 -3.497,10.119 -2.564,-0.546 -2.418,-2.222 0.146,-1.664 0,0" /></g><g
           transform="translate(418.4635,66.2243)"
           id="g90"><path
             id="path92"
             style="fill:#22475c;fill-opacity:1;fill-rule:nonzero;stroke:none"
             d="m 0,0 c -3.037,8.549 -7.901,16.172 -13.138,23.523 -5.841,8.203 -11.852,16.286 -17.788,24.419 -0.996,1.366 -2.954,-0.381 -1.967,-1.734 5.712,-7.827 11.476,-15.618 17.124,-23.49 C -10.412,15.253 -5.434,7.524 -2.342,-1.179 -1.777,-2.767 0.559,-1.571 0,0" /></g><g
           transform="translate(410.818,50.3698)"
           id="g94"><path
             id="path96"
             style="fill:#22475c;fill-opacity:1;fill-rule:nonzero;stroke:none"
             d="m 0,0 c -3.897,9.063 -10.171,16.032 -17.257,22.752 -7.087,6.721 -14.359,13.533 -17.722,22.957 -0.567,1.587 -2.903,0.393 -2.342,-1.179 3.153,-8.835 9.698,-15.547 16.371,-21.88 C -13.44,15.523 -6.494,8.479 -2.341,-1.179 -1.674,-2.731 0.665,-1.546 0,0" /></g><g
           transform="translate(92.2252,65.7077)"
           id="g98"><path
             id="path100"
             style="fill:#0097a7;fill-opacity:1;fill-rule:nonzero;stroke:none"
             d="m 0,0 c -14.762,1.567 -33.202,-0.763 -42.725,13.374 -0.438,0.657 -1.333,0.15 -1.28,-0.478 -0.106,-0.04 -0.199,-0.145 -0.2,-0.278 -0.005,-0.012 -0.011,-0.024 -0.004,-0.042 0.348,-2.312 1.016,-4.506 1.96,-6.544 0.007,-0.017 0.02,-0.023 0.014,-0.036 4.314,-9.475 14.174,-16.037 23.936,-19.027 7.397,-2.253 15.145,-2.895 22.848,-2.954 4.326,-0.026 8.656,0.183 12.981,0.158 4.079,-0.016 8.057,-0.709 12.075,-1.022 0.169,-0.017 0.35,-0.041 0.524,-0.047 0.477,-0.572 0.942,-1.137 1.396,-1.728 0.341,-0.45 1.02,0.037 0.709,0.488 -0.069,0.106 -0.151,0.217 -0.227,0.311 0,0 0.006,0.012 -0.007,0.017 -0.208,0.287 -0.405,0.569 -0.619,0.843 0.175,-0.006 0.344,-0.023 0.506,-0.024 0.493,-0.018 0.758,0.628 0.262,0.869 -0.659,0.301 -1.348,0.57 -2.041,0.798 -0.345,0.408 -0.617,0.783 -0.973,1.167 -0.019,0.023 -0.043,0.034 -0.068,0.045 C 21.652,-5.742 11.27,-1.2 0,0" /></g><g
           transform="translate(114.7648,88.696)"
           id="g102"><path
             id="path104"
             style="fill:#0097a7;fill-opacity:1;fill-rule:nonzero;stroke:none"
             d="m 0,0 c 0.007,-0.018 0.007,-0.018 0.001,-0.03 l 0.007,-0.018 0.007,-0.017 c 0.012,-0.006 0.006,-0.018 0.006,-0.018 0.012,-0.006 0.007,-0.019 0.007,-0.019 0.163,-1.357 0.326,-2.715 0.508,-4.066 -0.292,1.077 -0.63,2.115 -1.027,3.123 0.064,0.074 0.108,0.172 0.134,0.293 0.077,0.363 0.154,0.727 0.243,1.084 C -0.1,0.429 -0.08,0.538 -0.053,0.629 -0.026,0.396 0.022,0.211 0,0 M 9.333,89.951 C 5.418,74.3 1.488,58.58 -0.272,42.507 -1.609,30.18 -1.61,17.419 -0.479,4.939 -0.659,4.254 -0.82,3.575 -0.975,2.879 -1.027,2.667 -1.085,2.442 -1.125,2.225 -1.231,1.83 -1.308,1.437 -1.401,1.037 c -0.247,0.525 -0.518,1.032 -0.788,1.54 0.243,0.081 0.452,0.28 0.54,0.506 0.099,0.25 0.052,0.536 -0.268,0.741 C -2.04,3.91 -2.181,3.989 -2.304,4.075 L -2.316,4.08 c -0.424,0.268 -0.83,0.511 -1.265,0.754 -0.793,1.173 -1.669,2.295 -2.614,3.36 -0.421,0.502 -0.877,0.991 -1.35,1.443 -0.026,0.041 -0.057,0.069 -0.093,0.086 -6.561,6.68 -15.724,11.049 -24.374,14.699 -17.487,7.34 -34.75,15.949 -47.457,30.447 -0.433,0.507 -1.183,0.48 -1.552,0.059 l -0.006,-0.013 c -0.081,-0.081 -0.143,-0.186 -0.174,-0.318 -0.038,-0.117 -0.051,-0.243 -0.046,-0.393 1.164,-14.545 8.987,-28.232 21.468,-35.974 7.423,-4.594 15.979,-6.991 24.538,-8.312 10.318,-1.607 21.32,-1.195 30.683,-6.29 0.564,-0.316 1.11,-0.64 1.663,-0.981 0.049,-0.022 0.103,-0.032 0.14,-0.048 0.434,-0.7 0.838,-1.43 1.226,-2.167 l -0.218,-0.963 c -0.132,-0.648 0.563,-0.935 1.023,-0.702 0.477,-1.059 0.901,-2.167 1.274,-3.326 0.014,-0.065 0.109,-0.019 0.089,0.034 -0.014,0.036 -0.02,0.053 -0.021,0.084 0.085,-0.039 0.185,0.018 0.187,0.12 -0.01,0.625 -0.014,1.231 0,1.844 0.005,0.012 -0.007,0.018 -0.001,0.031 l -0.02,0.052 C 0.767,-0.777 0.726,0.849 0.68,2.463 0.677,2.878 0.674,3.292 0.659,3.712 1.124,5.64 1.637,7.544 2.168,9.456 l 0.006,0.012 c 3.226,11.585 7.394,22.902 9.287,34.8 1.113,6.942 1.202,13.776 0.259,20.741 -0.908,6.654 -1.293,12.967 -1.165,19.531 l -0.006,0.019 c 0.022,1.701 0.086,3.427 0.185,5.167 0.023,0.373 -0.16,0.619 -0.417,0.736 l -0.012,0.005 C 9.951,90.629 9.457,90.484 9.333,89.951" /></g><g
           transform="translate(42.7086,210.8766)"
           id="g106"><path
             id="path108"
             style="fill:#0097a7;fill-opacity:1;fill-rule:nonzero;stroke:none"
             d="m 0,0 c -0.007,-0.307 -0.014,-0.613 -0.015,-0.907 -0.188,-9.061 -0.15,-17.429 2.681,-26.242 2.802,-8.713 7.426,-16.796 13.605,-23.538 6.797,-7.392 15.479,-12.783 23.154,-19.188 4.85,-4.056 9.181,-8.376 12.992,-13.227 l 0.011,-0.004 c 1.587,-2.023 3.069,-4.115 4.477,-6.334 -1.499,4.385 -2.998,8.801 -4.514,13.18 -0.007,0.019 -0.007,0.019 -0.014,0.036 -4.288,12.252 -8.955,24.353 -15.343,35.719 -8.796,15.636 -20.58,28.208 -34.638,39.029 L 2.384,-1.471 C 1.562,-0.815 0.728,-0.185 -0.124,0.44 -0.047,0.316 0.011,0.187 0,0" /></g><g
           transform="translate(102.0275,204.0388)"
           id="g110"><path
             id="path112"
             style="fill:#0097a7;fill-opacity:1;fill-rule:nonzero;stroke:none"
             d="m 0,0 c -6.529,-26.704 -6.875,-54.473 -0.81,-81.284 -0.017,-0.036 -0.034,-0.073 -0.038,-0.115 l -0.006,-0.012 c -0.488,-1.268 -0.965,-2.54 -1.459,-3.819 -0.043,-0.128 -0.069,-0.249 -0.064,-0.37 -0.002,-0.294 0.133,-0.547 0.332,-0.726 l 0.012,-0.006 c 0.458,-0.386 1.204,-0.401 1.479,0.299 0.286,0.725 0.56,1.456 0.834,2.186 4.562,12.024 8.587,24.291 7.85,37.344 C 7.303,-31.64 4.358,-16.666 1.856,-1.982 1.849,-1.965 1.854,-1.952 1.848,-1.935 1.735,-1.308 1.628,-0.669 1.515,-0.042 1.508,0.006 1.494,0.042 1.481,0.077 1.262,0.826 0.205,0.807 0,0" /></g><g
           transform="translate(88.2433,87.572)"
           id="g114"><path
             id="path116"
             style="fill:#0097a7;fill-opacity:1;fill-rule:nonzero;stroke:none"
             d="m 0,0 c -15.72,5.973 -33.686,4.458 -46.663,16.646 -0.411,0.393 -0.888,-0.039 -0.854,-0.482 0.004,-0.09 0.007,-0.18 0.052,-0.274 1.161,-2.182 2.401,-4.252 3.75,-6.18 1.251,-1.854 2.587,-3.584 4.021,-5.197 6.121,-6.966 13.848,-11.862 23.682,-14.177 14.291,-3.345 29.451,-2.321 43.101,-8.044 0.937,-0.825 1.793,-1.732 2.436,-2.719 0,0 0.012,-0.005 0.006,-0.017 0,0 0.012,-0.006 0.007,-0.018 0.59,-0.874 1.007,-1.772 1.207,-2.792 0.129,-0.591 1.058,-0.527 0.957,0.094 -0.231,1.565 -0.893,2.93 -1.796,4.153 l 0.207,-0.095 c 0.049,-0.022 0.111,-0.049 0.165,-0.06 0.133,-0.031 0.271,-0.02 0.383,0.032 0.504,0.198 0.701,1.053 0.065,1.372 -0.722,0.359 -1.437,0.699 -2.151,1.01 -0.477,0.218 -0.965,0.41 -1.434,0.61 -2.106,1.757 -4.568,3.218 -6.596,4.659 C 14.14,-6.949 7.357,-2.795 0,0" /></g><g
           transform="translate(141.2096,147.4919)"
           id="g118"><path
             id="path120"
             style="fill:#0097a7;fill-opacity:1;fill-rule:nonzero;stroke:none"
             d="m 0,0 c -0.046,-0.037 -0.086,-0.093 -0.108,-0.172 -5.616,-16.086 -10.375,-32.459 -14.074,-49.095 -2.379,-10.599 -4.87,-21.412 -5.611,-32.3 -0.009,-0.085 -0.006,-0.174 -0.015,-0.259 -0.005,-0.012 -0.005,-0.012 0.001,-0.03 -0.005,-0.012 0.007,-0.018 0.007,-0.018 -0.127,-1.639 -0.194,-3.275 -0.206,-4.922 -0.056,-0.122 -0.112,-0.244 -0.161,-0.384 0.341,-1.454 0.651,-2.879 0.954,-4.285 0.213,0.95 0.491,1.886 0.824,2.811 0.032,0.103 0.064,0.207 0.109,0.304 0.284,0.786 0.598,1.572 0.948,2.341 l 0.329,0.721 c 0.022,0.049 0.049,0.109 0.084,0.153 2.444,5.17 5.972,10.097 8.325,14.939 3.383,6.94 6.162,14.273 7.368,21.94 2.164,13.559 -0.004,27.323 1.221,40.927 0,0.029 -0.002,0.059 0.009,0.084 0.201,2.254 0.492,4.512 0.927,6.762 C 1.02,0.036 0.306,0.348 0,0" /></g><g
           transform="translate(78.0104,156.6599)"
           id="g122"><path
             id="path124"
             style="fill:#22475c;fill-opacity:1;fill-rule:nonzero;stroke:none"
             d="m 0,0 c 0.007,-0.018 0.019,-0.022 0.031,-0.028 6.564,-9.588 12.22,-19.292 17.084,-28.857 l 0.011,-0.005 c 1.585,-3.128 3.092,-6.233 4.513,-9.331 0.116,-0.23 0.222,-0.484 0.333,-0.726 l 0.012,-0.006 c 3.189,-6.957 5.978,-13.79 8.409,-20.371 l 0.166,-0.446 c 0.307,-0.847 0.608,-1.677 0.908,-2.507 0.241,-0.702 0.489,-1.389 0.729,-2.059 2.641,-7.578 4.825,-14.799 6.612,-21.5 0.068,-0.237 0.131,-0.487 0.188,-0.72 0.048,-0.184 0.097,-0.369 0.146,-0.553 0.216,-0.822 0.425,-1.625 0.615,-2.406 0,0 0.013,-0.005 0.007,-0.017 0,0 0.012,-0.006 0.007,-0.018 0.63,-2.471 1.209,-4.859 1.73,-7.147 0.329,-1.449 0.645,-2.861 0.936,-4.262 0.296,-1.39 0.586,-2.761 0.845,-4.104 0.154,-0.762 0.308,-1.526 0.443,-2.266 0.029,-0.161 0.065,-0.311 0.095,-0.472 0.672,-3.542 1.246,-6.918 1.742,-10.118 h 3.19 c -0.411,2.685 -0.878,5.496 -1.411,8.424 l -0.012,0.006 c -0.131,0.782 -0.286,1.576 -0.435,2.382 -0.422,2.213 -0.877,4.486 -1.37,6.805 -0.102,0.489 -0.209,0.966 -0.323,1.46 -0.082,0.437 -0.188,0.883 -0.282,1.324 -0.035,0.119 -0.051,0.245 -0.092,0.381 l 0.006,0.013 c -0.08,0.375 -0.16,0.751 -0.251,1.132 -0.372,1.615 -0.761,3.253 -1.171,4.944 l -0.012,0.006 c 0,0 -0.012,0.006 -0.006,0.018 -0.007,0.018 -0.007,0.018 -0.002,0.03 -0.034,0.119 -0.063,0.25 -0.092,0.381 -1.541,6.235 -3.426,13.01 -5.74,20.173 0.005,0.011 -0.007,0.017 -10e-4,0.03 l -0.02,0.053 c -0.244,0.76 -0.488,1.52 -0.756,2.292 0,0 0.006,0.012 -0.007,0.018 0,0 0.006,0.012 -0.006,0.018 l -0.007,0.017 -0.007,0.018 c 0.006,0.013 0.006,0.013 -0.001,0.03 -0.04,0.107 -0.074,0.226 -0.114,0.332 -0.277,0.85 -0.559,1.687 -0.861,2.547 -3.111,9.105 -6.89,18.749 -11.482,28.617 -0.203,0.462 -0.411,0.911 -0.632,1.366 l 0.005,0.012 c -0.096,0.177 -0.175,0.361 -0.266,0.549 -0.084,0.172 -0.169,0.343 -0.24,0.509 l 0.005,0.011 c -1.898,3.963 -3.911,7.965 -6.08,11.978 -0.007,0.019 -0.007,0.019 -0.013,0.036 C 10.973,-10.65 3.739,0.838 -4.8,12.023 c -0.53,0.695 -1.53,0.825 -2.222,0.29 -0.689,-0.53 -0.813,-1.517 -0.284,-2.208 C -4.749,6.766 -2.313,3.39 0,0" /></g><g
           transform="translate(102.4674,173.5827)"
           id="g126"><path
             id="path128"
             style="fill:#22475c;fill-opacity:1;fill-rule:nonzero;stroke:none"
             d="m 0,0 c 1.321,-17.561 0.304,-35.144 -3.038,-52.436 -0.362,-1.875 2.546,-2.44 2.908,-0.567 3.388,17.531 4.426,35.398 3.087,53.202 C 2.813,2.103 -0.143,1.902 0,0" /></g><g
           transform="translate(120.1549,139.4938)"
           id="g130"><path
             id="path132"
             style="fill:#22475c;fill-opacity:1;fill-rule:nonzero;stroke:none"
             d="m 0,0 c -2.634,-17.245 -5.267,-34.49 -7.901,-51.735 -0.287,-1.884 2.62,-2.455 2.908,-0.569 2.634,17.246 5.267,34.492 7.901,51.737 C 3.196,1.316 0.288,1.888 0,0" /></g><g
           transform="translate(135.3014,114.9421)"
           id="g134"><path
             id="path136"
             style="fill:#22475c;fill-opacity:1;fill-rule:nonzero;stroke:none"
             d="m 0,0 c -6.172,-18.544 -11.146,-37.449 -14.898,-56.63 -0.368,-1.875 2.541,-2.439 2.907,-0.567 3.754,19.18 8.727,38.086 14.899,56.63 C 3.509,1.24 0.594,1.785 0,0" /></g><g
           transform="translate(113.6246,91.8063)"
           id="g138"><path
             id="path140"
             style="fill:#22475c;fill-opacity:1;fill-rule:nonzero;stroke:none"
             d="m 0,0 c -7.279,7.931 -17.399,11.684 -27.431,14.836 -12.083,3.797 -23.312,7.706 -32.721,16.547 -1.39,1.305 -3.311,-0.951 -1.922,-2.256 8.379,-7.872 18.312,-12.262 29.16,-15.672 C -21.746,9.945 -10.102,6.657 -1.921,-2.256 -0.636,-3.656 1.277,-1.391 0,0" /></g><g
           transform="translate(119.7335,69.3962)"
           id="g142"><path
             id="path144"
             style="fill:#22475c;fill-opacity:1;fill-rule:nonzero;stroke:none"
             d="m 0,0 c -8.608,5.566 -18.216,9.045 -27.971,12.025 -10.881,3.326 -21.834,6.426 -32.753,9.624 -1.832,0.537 -2.383,-2.377 -0.567,-2.908 10.507,-3.078 21.037,-6.088 31.519,-9.249 C -19.833,6.494 -10.05,2.998 -1.286,-2.668 0.313,-3.702 1.583,-1.023 0,0" /></g><g
           transform="translate(123.8043,49.9274)"
           id="g146"><path
             id="path148"
             style="fill:#22475c;fill-opacity:1;fill-rule:nonzero;stroke:none"
             d="m 0,0 c -9.734,5.436 -20.154,7.356 -31.13,8.496 -10.977,1.14 -22.184,2.234 -31.688,8.36 -1.6,1.032 -2.87,-1.647 -1.286,-2.668 8.91,-5.743 19.396,-7.249 29.736,-8.326 11.636,-1.213 22.71,-2.739 33.082,-8.53 C 0.382,-3.6 1.66,-0.927 0,0" /></g><g
           transform="translate(209.5582,57.1442)"
           id="g150"><path
             id="path152"
             style="fill:#0097a7;fill-opacity:1;fill-rule:nonzero;stroke:none"
             d="m 0,0 c 3.032,-3.086 6.232,-6.009 9.265,-9.094 2.865,-2.904 5.178,-6.213 7.789,-9.282 0.008,-0.009 0.016,-0.019 0.023,-0.027 h 1.763 c -0.113,0.25 -0.226,0.502 -0.349,0.746 0.046,0.532 0.12,0.989 0.141,1.512 0.004,0.031 -0.006,0.055 -0.015,0.081 0.705,11.158 -3.394,21.722 -10.489,30.561 -9.296,11.573 -23.951,23.007 -20.64,39.728 0.158,0.773 -0.833,1.05 -1.241,0.57 -0.104,0.047 -0.244,0.038 -0.338,-0.054 -0.013,-0.005 -0.026,-0.01 -0.034,-0.027 -1.394,-1.877 -2.478,-3.897 -3.257,-6.004 -0.009,-0.018 -0.004,-0.03 -0.016,-0.035 -3.679,-9.74 -1.379,-21.359 3.383,-30.39 C -10.396,11.451 -5.389,5.505 0,0" /></g><g
           transform="translate(249.8805,71.8659)"
           id="g154"><path
             id="path156"
             style="fill:#0097a7;fill-opacity:1;fill-rule:nonzero;stroke:none"
             d="m 0,0 c -0.008,-0.018 -0.008,-0.018 -0.021,-0.022 l -0.007,-0.017 -0.009,-0.018 c 0.005,-0.012 -0.007,-0.016 -0.007,-0.016 0.004,-0.013 -0.008,-0.018 -0.008,-0.018 -0.848,-1.073 -1.696,-2.146 -2.527,-3.227 0.559,0.965 1.058,1.937 1.492,2.929 0.097,0.007 0.198,0.045 0.302,0.112 0.312,0.202 0.623,0.403 0.94,0.592 C 0.234,0.373 0.325,0.436 0.409,0.48 0.262,0.298 0.166,0.133 0,0 M 70.367,56.805 C 56.508,48.544 42.591,40.248 29.951,30.163 20.266,22.42 11.217,13.423 3.165,3.822 2.552,3.467 1.957,3.103 1.354,2.722 1.167,2.608 0.966,2.492 0.784,2.367 0.429,2.164 0.097,1.94 -0.252,1.725 -0.054,2.271 0.114,2.82 0.283,3.369 0.512,3.254 0.801,3.247 1.023,3.343 1.27,3.449 1.441,3.685 1.36,4.056 1.334,4.203 1.291,4.359 1.265,4.507 L 1.26,4.52 C 1.15,5.009 1.038,5.468 0.903,5.947 c 0.273,1.39 0.451,2.802 0.54,4.224 0.059,0.652 0.083,1.32 0.071,1.974 0.01,0.047 0.009,0.089 -0.004,0.127 0.11,9.363 -3.252,18.941 -6.762,27.648 -7.125,17.576 -13.192,35.888 -11.871,55.121 0.055,0.664 -0.493,1.177 -1.052,1.142 l -0.013,-0.005 c -0.115,0.001 -0.232,-0.03 -0.349,-0.101 -0.109,-0.055 -0.208,-0.135 -0.311,-0.244 -9.493,-11.08 -13.683,-26.279 -10.373,-40.588 1.975,-8.503 6.308,-16.261 11.406,-23.262 C -11.679,23.533 -3.63,16.022 -0.642,5.79 -0.468,5.167 -0.312,4.552 -0.164,3.92 -0.145,3.869 -0.114,3.823 -0.1,3.786 -0.29,2.985 -0.522,2.184 -0.772,1.389 L -1.608,0.864 c -0.553,-0.362 -0.267,-1.058 0.222,-1.22 -0.414,-1.084 -0.9,-2.167 -1.459,-3.248 -0.036,-0.056 0.062,-0.091 0.086,-0.04 0.016,0.036 0.024,0.052 0.044,0.075 0.033,-0.088 0.144,-0.119 0.218,-0.048 0.436,0.447 0.863,0.878 1.308,1.301 0.013,0.004 0.008,0.016 0.021,0.021 l 0.023,0.052 c 1.134,1.15 2.259,2.327 3.371,3.498 0.292,0.294 0.584,0.589 0.871,0.895 1.694,1.03 3.407,2.008 5.137,2.979 l 0.013,0.005 c 10.489,5.88 21.453,10.904 31.226,17.95 5.707,4.106 10.616,8.862 14.89,14.441 4.078,5.336 8.283,10.059 13.03,14.597 L 67.4,52.14 c 1.223,1.183 2.492,2.355 3.795,3.511 0.282,0.247 0.326,0.55 0.229,0.815 l -0.005,0.013 c -0.136,0.365 -0.585,0.613 -1.052,0.326" /></g><g
           transform="translate(285.7174,209.11)"
           id="g158"><path
             id="path160"
             style="fill:#0097a7;fill-opacity:1;fill-rule:nonzero;stroke:none"
             d="m 0,0 c -0.222,-0.212 -0.444,-0.423 -0.654,-0.63 -6.558,-6.254 -12.464,-12.182 -16.719,-20.403 -4.202,-8.13 -6.675,-17.109 -7.099,-26.243 -0.45,-10.033 1.85,-19.991 2.719,-29.949 0.544,-6.299 0.534,-12.417 -0.219,-18.538 l 0.004,-0.012 c -0.314,-2.551 -0.754,-5.077 -1.335,-7.641 2.054,4.155 4.128,8.332 6.164,12.495 l 0.016,0.035 c 5.665,11.68 10.956,23.521 14.512,36.065 4.885,17.261 5.493,34.483 3.255,52.081 L 0.639,-2.728 C 0.523,-1.683 0.383,-0.646 0.225,0.398 0.191,0.257 0.141,0.123 0,0" /></g><g
           transform="translate(322.693,162.2233)"
           id="g162"><path
             id="path164"
             style="fill:#0097a7;fill-opacity:1;fill-rule:nonzero;stroke:none"
             d="m 0,0 c -23.54,-14.198 -43.476,-33.531 -58.212,-56.736 -0.038,-0.014 -0.076,-0.029 -0.109,-0.055 l -0.012,-0.005 c -1.243,-0.547 -2.482,-1.105 -3.738,-1.657 -0.121,-0.06 -0.225,-0.127 -0.307,-0.215 -0.21,-0.206 -0.294,-0.48 -0.281,-0.748 l 0.005,-0.013 c 0.05,-0.597 0.564,-1.136 1.255,-0.838 0.715,0.309 1.427,0.63 2.138,0.951 11.742,5.242 23.28,11.038 32.016,20.763 9.957,11.067 18.5,23.712 27.148,35.84 0.008,0.017 0.02,0.022 0.029,0.039 0.364,0.522 0.742,1.048 1.107,1.57 0.028,0.04 0.044,0.074 0.06,0.108 C 1.476,-0.312 0.716,0.423 0,0" /></g><g
           transform="translate(230.3834,89.8806)"
           id="g166"><path
             id="path168"
             style="fill:#0097a7;fill-opacity:1;fill-rule:nonzero;stroke:none"
             d="m 0,0 c -6.848,15.358 -20.589,27.03 -21.097,44.826 -0.01,0.57 -0.653,0.603 -0.944,0.267 -0.061,-0.067 -0.122,-0.132 -0.157,-0.231 -0.729,-2.361 -1.323,-4.7 -1.739,-7.016 -0.432,-2.194 -0.717,-4.362 -0.85,-6.516 -0.624,-9.252 1.353,-18.184 6.644,-26.789 7.705,-12.492 19.12,-22.521 24.686,-36.236 0.075,-1.246 0.036,-2.493 -0.211,-3.644 0,0 0.005,-0.013 -0.008,-0.017 0,0 0.005,-0.013 -0.008,-0.017 -0.203,-1.035 -0.546,-1.964 -1.129,-2.825 -0.327,-0.507 0.373,-1.121 0.742,-0.613 0.947,1.268 1.448,2.7 1.678,4.203 l 0.08,-0.214 c 0.019,-0.051 0.042,-0.114 0.073,-0.159 0.072,-0.117 0.177,-0.207 0.293,-0.249 0.495,-0.218 1.24,0.245 1.018,0.921 -0.255,0.765 -0.517,1.512 -0.8,2.238 -0.182,0.491 -0.389,0.972 -0.579,1.446 -0.239,2.732 -0.938,5.509 -1.346,7.963 C 5.042,-14.927 3.206,-7.187 0,0" /></g><g
           transform="translate(310.2203,94.5681)"
           id="g170"><path
             id="path172"
             style="fill:#0097a7;fill-opacity:1;fill-rule:nonzero;stroke:none"
             d="m 0,0 c -0.06,0.007 -0.127,-0.004 -0.198,-0.045 -15.367,-7.358 -30.333,-15.528 -44.739,-24.635 -9.193,-5.786 -18.617,-11.642 -26.861,-18.795 -0.067,-0.052 -0.128,-0.119 -0.194,-0.171 -0.013,-0.005 -0.013,-0.005 -0.021,-0.023 -0.012,-0.004 -0.007,-0.017 -0.007,-0.017 -1.252,-1.065 -2.459,-2.171 -3.636,-3.324 -0.126,-0.047 -0.252,-0.094 -0.385,-0.157 -0.791,-1.267 -1.583,-2.491 -2.367,-3.698 0.824,0.52 1.683,0.982 2.574,1.398 0.096,0.05 0.192,0.1 0.293,0.137 0.757,0.352 1.536,0.684 2.329,0.978 l 0.742,0.276 c 0.051,0.018 0.114,0.042 0.168,0.048 5.39,1.912 11.371,2.884 16.464,4.63 7.307,2.494 14.467,5.693 20.754,10.244 11.141,8.025 19.372,19.267 29.883,27.99 0.02,0.021 0.041,0.044 0.066,0.053 C -3.396,-3.664 -1.59,-2.278 0.313,-1 0.745,-0.697 0.462,0.028 0,0" /></g><g
           transform="translate(230.3976,38.7409)"
           id="g174"><path
             id="path176"
             style="fill:#22475c;fill-opacity:1;fill-rule:nonzero;stroke:none"
             d="m 0,0 c 0.906,1.341 1.817,2.703 2.734,4.105 0.275,0.417 0.537,0.83 0.808,1.259 0.251,0.365 0.493,0.756 0.74,1.134 0.06,0.107 0.137,0.208 0.205,0.333 L 4.5,6.836 c 0.21,0.321 0.42,0.643 0.626,0.976 0.883,1.402 1.77,2.834 2.681,4.317 l -0.005,0.013 c 0,0 -0.005,0.012 0.008,0.016 0.008,0.018 0.008,0.018 0.021,0.023 0.06,0.108 0.132,0.22 0.205,0.334 3.335,5.489 6.81,11.602 10.258,18.294 0.013,0.003 0.008,0.016 0.02,0.021 l 0.024,0.052 c 0.367,0.709 0.735,1.418 1.093,2.152 0,0 0.012,0.005 0.007,0.018 0,0 0.013,0.004 0.008,0.016 l 0.009,0.018 0.007,0.018 c 0.013,0.003 0.013,0.003 0.021,0.021 0.047,0.104 0.107,0.212 0.155,0.315 0.407,0.795 0.801,1.585 1.198,2.407 4.263,8.625 8.439,18.105 12.199,28.319 0.183,0.47 0.355,0.935 0.522,1.411 l 0.013,0.005 c 0.056,0.193 0.132,0.378 0.201,0.576 0.062,0.181 0.124,0.361 0.191,0.529 l 0.012,0.004 c 1.473,4.141 2.891,8.389 4.207,12.757 l 0.016,0.035 c 3.751,12.334 6.797,25.565 8.708,39.506 0.119,0.866 -0.494,1.666 -1.361,1.781 -0.862,0.114 -1.649,-0.494 -1.765,-1.355 -0.566,-4.169 -1.242,-8.276 -2.015,-12.307 -0.009,-0.016 -0.004,-0.029 10e-4,-0.042 -2.17,-11.415 -5.064,-22.267 -8.417,-32.46 l 0.004,-0.012 c -1.1,-3.329 -2.24,-6.587 -3.435,-9.78 -0.081,-0.244 -0.187,-0.498 -0.281,-0.748 l 0.005,-0.012 C 26.957,56.887 24.077,50.092 21.124,43.728 L 20.926,43.296 C 20.541,42.48 20.164,41.683 19.787,40.884 19.46,40.219 19.147,39.559 18.841,38.915 15.33,31.699 11.749,25.06 8.257,19.068 8.137,18.852 8.004,18.631 7.879,18.427 7.783,18.263 7.686,18.098 7.589,17.933 7.16,17.201 6.737,16.486 6.318,15.801 c 0,0 0.005,-0.013 -0.008,-0.018 0,0 0.004,-0.012 -0.008,-0.016 C 4.995,13.577 3.709,11.482 2.454,9.5 1.659,8.245 0.879,7.026 0.091,5.831 -0.685,4.642 -1.453,3.469 -2.222,2.339 -2.655,1.691 -3.088,1.044 -3.518,0.427 -3.611,0.292 -3.692,0.162 -3.785,0.027 -3.792,0.018 -3.797,0.009 -3.804,0 Z" /></g><g
           transform="translate(301.4059,140.4382)"
           id="g178"><path
             id="path180"
             style="fill:#22475c;fill-opacity:1;fill-rule:nonzero;stroke:none"
             d="m 0,0 c -11.521,-13.318 -24.708,-24.995 -39.326,-34.816 -1.585,-1.066 0.065,-3.527 1.648,-2.462 14.821,9.957 28.223,21.818 39.904,35.322 C 3.475,-0.513 1.248,1.442 0,0" /></g><g
           transform="translate(289.7028,103.86)"
           id="g182"><path
             id="path184"
             style="fill:#22475c;fill-opacity:1;fill-rule:nonzero;stroke:none"
             d="m 0,0 c -14.086,-10.292 -28.172,-20.583 -42.258,-30.875 -1.538,-1.124 0.107,-3.589 1.648,-2.462 14.087,10.291 28.172,20.583 42.258,30.875 C 3.188,-1.338 1.542,1.126 0,0" /></g><g
           transform="translate(282.9723,75.8083)"
           id="g186"><path
             id="path188"
             style="fill:#22475c;fill-opacity:1;fill-rule:nonzero;stroke:none"
             d="m 0,0 c -17.502,-8.698 -34.415,-18.501 -50.663,-29.363 -1.588,-1.062 0.062,-3.523 1.648,-2.462 16.248,10.861 33.161,20.664 50.662,29.362 C 3.354,-1.614 1.685,0.837 0,0" /></g><g
           transform="translate(251.2819,74.8679)"
           id="g190"><path
             id="path192"
             style="fill:#22475c;fill-opacity:1;fill-rule:nonzero;stroke:none"
             d="m 0,0 c 0.492,10.754 -3.982,20.576 -8.82,29.912 -5.827,11.245 -10.972,21.965 -11.337,34.87 -0.054,1.906 -3.009,1.678 -2.954,-0.227 0.325,-11.492 4.215,-21.631 9.446,-31.728 C -8.28,22.433 -2.401,11.856 -2.954,-0.229 -3.041,-2.127 -0.086,-1.887 0,0" /></g><g
           transform="translate(239.6979,54.735)"
           id="g194"><path
             id="path196"
             style="fill:#22475c;fill-opacity:1;fill-rule:nonzero;stroke:none"
             d="m 0,0 c -2.123,10.029 -6.43,19.295 -11.194,28.313 -5.314,10.061 -10.839,20.014 -16.269,30.012 -0.912,1.678 -3.365,0.015 -2.462,-1.648 C -24.7,47.056 -19.41,37.467 -14.261,27.805 -9.379,18.642 -4.96,9.24 -2.799,-0.97 -2.405,-2.833 0.39,-1.845 0,0" /></g><g
           transform="translate(208.6867,66.6257)"
           id="g198"><path
             id="path200"
             style="fill:#22475c;fill-opacity:1;fill-rule:nonzero;stroke:none"
             d="m 0,0 c 7,-8.679 13.43,-17.202 16.794,-27.885 h 3.095 c -3.063,10.451 -8.942,19.026 -15.738,27.447 -6.932,8.587 -14.057,17.306 -16.414,28.365 -0.397,1.862 -3.192,0.874 -2.799,-0.97 C -12.853,16.59 -6.526,8.093 0,0" /></g><g
           transform="translate(127.2746,42.8464)"
           id="g202"><path
             id="path204"
             style="fill:#3b474e;fill-opacity:1;fill-rule:nonzero;stroke:none"
             d="m 0,0 h 104.221 c 7.956,0 12.703,6.449 10.605,14.404 L 35.605,314.716 C 33.506,322.671 25.356,329.12 17.401,329.12 H -86.821 c -7.955,0 -12.703,-6.449 -10.604,-14.404 L -18.205,14.404 C -16.106,6.449 -7.956,0 0,0" /></g><g
           transform="translate(128.2521,54.9225)"
           id="g206"><path
             id="path208"
             style="fill:#667a84;fill-opacity:1;fill-rule:nonzero;stroke:none"
             d="m 0,0 h 100.058 c 7.955,0 12.703,6.449 10.605,14.405 L 34.627,302.64 c -2.098,7.955 -10.249,14.404 -18.204,14.404 H -83.634 c -7.956,0 -12.704,-6.449 -10.605,-14.404 L -18.204,14.405 C -16.105,6.449 -7.956,0 0,0" /></g><g
           transform="translate(47.132,366.2858)"
           id="g210"><path
             id="path212"
             style="fill:#eaedef;fill-opacity:1;fill-rule:nonzero;stroke:none"
             d="m 0,0 h 103.283 c 4.548,0 9.208,-3.687 10.408,-8.235 l 79.478,-301.288 c 1.2,-4.548 -1.515,-8.236 -6.063,-8.236 H 83.823 c -4.548,0 -9.208,3.688 -10.407,8.236 L -6.063,-8.235 C -7.263,-3.687 -4.548,0 0,0" /></g><g
           transform="translate(107.5319,363.4894)"
           id="g214"><path
             id="path216"
             style="fill:#3b474e;fill-opacity:1;fill-rule:nonzero;stroke:none"
             d="M 0,0 C -4.033,-0.074 -1.024,-8.635 3.01,-8.561 7.043,-8.487 4.035,0.074 0,0" /></g><text
           y="-322.33813"
           x="193.99059"
           id="text220"
           style="font-variant:normal;font-weight:600;font-stretch:normal;font-size:14.85765457px;font-family:'Montserrat SemiBold';-inkscape-font-specification:Montserrat-SemiBold;writing-mode:lr-tb;fill:#00cfa1;fill-opacity:1;fill-rule:nonzero;stroke:none;stroke-width:0.96999449"
           transform="matrix(0.9690695,0.00281337,0.34026905,-1.0309299,0,0)"><tspan
             style="stroke-width:0.96999449"
             id="tspan218"
             y="-322.33813"
             x="193.99059">DOSTAVA</tspan></text>
<path
           id="path222"
           style="fill:#3b474e;fill-opacity:1;fill-rule:nonzero;stroke:none"
           d="m 0,37.841 h 500 v 5.79 H 0 Z" /><g
           transform="translate(374.944,250.5095)"
           id="g224"><path
             id="path226"
             style="fill:#ffc9b9;fill-opacity:1;fill-rule:nonzero;stroke:none"
             d="m 0,0 -7,-18.911 -26.561,5.31 -1.218,-4.66 -0.374,-1.429 28.374,-12.346 c 5.635,-2.452 11.747,2.319 10.733,8.382 z" /></g><g
           transform="translate(378.8981,226.8552)"
           id="g228"><path
             id="path230"
             style="fill:#fda98f;fill-opacity:1;fill-rule:nonzero;stroke:none"
             d="m 0,0 -3.954,23.654 -3.399,-9.179 c 1.843,-6.092 3.17,-12.2 1.938,-18.732 0.622,0.092 1.246,0.201 1.877,0.347 -0.631,-0.146 -1.255,-0.255 -1.877,-0.347 -0.041,-0.218 -0.076,-0.434 -0.123,-0.653 0.047,0.219 0.082,0.435 0.123,0.653 -11.868,-1.737 -22.248,5.722 -33.318,9.651 l -0.374,-1.43 28.374,-12.346 C -5.098,-10.834 1.014,-6.062 0,0" /></g><g
           transform="translate(330.4235,242.2429)"
           id="g232"><path
             id="path234"
             style="fill:#fda98f;fill-opacity:1;fill-rule:nonzero;stroke:none"
             d="M 0,0 -5.142,-3.256 0,-9.949 l 4.237,-1.912 5.13,0.437 1.593,6.09 z" /></g><g
           transform="translate(340.1647,232.2487)"
           id="g236"><path
             id="path238"
             style="fill:#ffc9b9;fill-opacity:1;fill-rule:nonzero;stroke:none"
             d="m 0,0 -3.005,1.333 c -1.951,1.032 -3.441,2.763 -4.172,4.846 l -0.584,1.665 -5.803,2.692 c -0.378,0.175 -0.576,0.597 -0.468,1 0.125,0.466 0.609,0.737 1.072,0.601 l 7.69,-1.052 c 1.878,-0.257 3.534,-1.363 4.49,-3 L 1.219,4.66 Z" /></g><g
           transform="translate(352.4332,316.7531)"
           id="g240"><path
             id="path242"
             style="fill:#bf360c;fill-opacity:1;fill-rule:nonzero;stroke:none"
             d="m 0,0 c -0.585,-6.825 3.903,-13.765 10.367,-16.031 3.234,-1.134 7.119,-1.377 9.251,-4.058 2.006,-2.523 1.572,-6.113 1.37,-9.33 -0.203,-3.216 0.289,-7.067 3.144,-8.562 3.608,-1.891 8.032,1.453 11.986,0.476 3.903,-0.965 5.596,-5.612 5.783,-9.629 0.189,-4.016 -0.43,-8.29 1.417,-11.861 1.804,-3.486 5.693,-5.527 9.587,-6.014 3.895,-0.487 7.828,0.363 11.611,1.413 4.623,1.283 9.233,2.908 13.132,5.703 3.9,2.795 7.052,6.906 7.813,11.643 0.761,4.737 -1.268,10.037 -5.474,12.345 -2.462,1.351 -5.657,1.799 -7.177,4.159 -1.612,2.5 -0.483,5.782 0.628,8.541 1.11,2.76 2.096,6.137 0.294,8.503 -3.272,4.299 -11.619,0.374 -14.888,4.676 -1.269,1.669 -1.189,3.952 -1.308,6.045 C 56.96,8.163 49.818,17.626 40.222,20.964 33.859,23.178 26.674,22.607 20.601,19.769 17.499,18.32 15.404,15.748 12.544,14.111 9.8,12.542 7.098,12.072 4.714,9.725 2.098,7.148 0.315,3.679 0,0" /></g><g
           transform="translate(432.4205,282.8478)"
           id="g244"><path
             id="path246"
             style="fill:#92360c;fill-opacity:1;fill-rule:nonzero;stroke:none"
             d="m 0,0 c -2.462,1.351 -5.657,1.799 -7.178,4.16 -1.611,2.5 -0.482,5.781 0.628,8.541 1.111,2.759 2.097,6.136 0.295,8.503 -3.272,4.298 -11.619,0.374 -14.889,4.675 -1.268,1.669 -1.188,3.952 -1.307,6.045 -0.573,10.089 -7.644,19.5 -17.162,22.886 6.276,-4.038 11.049,-10.639 12.731,-17.886 0.573,-2.471 0.713,-5.007 0.655,-7.538 -0.08,-3.548 -2.321,-8.023 2.224,-9.678 3.197,-1.165 6.685,-0.739 9.137,-3.626 1.435,-1.69 1.406,-3.73 0.779,-5.752 -0.612,-1.974 -0.998,-3.682 -0.285,-5.704 0.688,-1.951 2.065,-3.697 3.445,-5.209 1.266,-1.385 2.525,-2.828 2.583,-4.806 0.057,-1.925 -0.954,-3.887 -2.249,-5.257 -2.455,-2.595 -6.37,-3.845 -9.815,-4.365 -3.237,-0.489 -6.458,-0.136 -8.997,2.089 -2.374,2.08 -3.585,5.255 -4.707,8.114 -0.639,1.628 -1.204,3.225 -2.545,4.423 -1.16,1.036 -2.641,1.58 -4.128,1.952 -3.498,0.875 -7.558,0.478 -10.81,2.134 -2.906,1.48 -3.42,4.597 -3.285,7.556 0.129,2.832 0.79,6.291 -1.773,8.28 -1.361,1.056 -3.097,1.478 -4.745,1.835 -1.719,0.372 -3.435,0.782 -5.11,1.324 -3.657,1.183 -7.142,3.015 -9.468,6.164 -2.058,2.787 -2.684,6.211 -2.439,9.619 0.024,0.342 0.062,0.688 0.103,1.034 -0.909,-1.742 -1.506,-3.642 -1.675,-5.608 -0.585,-6.824 3.903,-13.764 10.367,-16.031 3.232,-1.134 7.119,-1.376 9.251,-4.058 2.006,-2.523 1.572,-6.113 1.37,-9.33 -0.203,-3.216 0.289,-7.067 3.144,-8.562 3.608,-1.89 8.032,1.453 11.986,0.476 3.903,-0.964 5.596,-5.612 5.783,-9.629 0.189,-4.016 -0.431,-8.29 1.417,-11.861 1.804,-3.486 5.692,-5.527 9.587,-6.014 3.895,-0.487 7.828,0.364 11.61,1.414 4.623,1.282 9.234,2.907 13.133,5.702 3.9,2.796 7.052,6.906 7.813,11.643 C 6.234,-7.608 4.206,-2.308 0,0" /></g><g
           transform="translate(414.9508,52.5036)"
           id="g248"><path
             id="path250"
             style="fill:#ffc9b9;fill-opacity:1;fill-rule:nonzero;stroke:none"
             d="M 0,0 -6.863,-1.342 -9.652,18.249 1.999,19.952 Z" /></g><g
           transform="translate(384.0699,197.5554)"
           id="g252"><path
             id="path254"
             style="fill:#263238;fill-opacity:1;fill-rule:nonzero;stroke:none"
             d="m 0,0 29.625,1.492 2.125,-23.699 -3.726,-42.422 6.614,-14.001 -1.758,-46.47 -11.651,-1.703 -8.949,53.52 z" /></g><g
           transform="translate(415.5631,54.3229)"
           id="g256"><path
             id="path258"
             style="fill:#ffffff;fill-opacity:1;fill-rule:nonzero;stroke:none"
             d="m 0,0 3.325,-10.075 -33.579,-0.499 0.305,2.232 20.995,9.522 2.833,-2.213 z" /></g><g
           transform="translate(432.7233,53.0563)"
           id="g260"><path
             id="path262"
             style="fill:#ffc9b9;fill-opacity:1;fill-rule:nonzero;stroke:none"
             d="m 0,0 -7.296,-1.427 -3.299,20.826 12.089,1.052 z" /></g><g
           transform="translate(429.4694,198.569)"
           id="g264"><path
             id="path266"
             style="fill:#37474f;fill-opacity:1;fill-rule:nonzero;stroke:none"
             d="m 0,0 c -9.246,-0.745 -18.469,-1.782 -27.648,-3.115 l 10.89,-66.734 9.417,-56.264 12.089,1.051 1.493,33.854 c 0.497,10.142 -2.508,20.145 -8.51,28.334 l 7.332,24.357 C 6.538,-36.018 9.1,-20.856 7.433,-6.146 7.011,-2.419 3.738,0.302 0,0" /></g><g
           transform="translate(433.3756,54.9909)"
           id="g268"><path
             id="path270"
             style="fill:#ffffff;fill-opacity:1;fill-rule:nonzero;stroke:none"
             d="m 0,0 3.534,-10.712 -35.697,-0.53 0.324,2.373 22.318,10.123 3.013,-2.353 z" /></g><g
           transform="translate(428.9977,148.4567)"
           id="g272"><path
             id="path274"
             style="fill:#263238;fill-opacity:1;fill-rule:nonzero;stroke:none"
             d="m 0,0 c -2.759,-7.507 -5.517,-15.015 -8.275,-22.522 -0.456,-1.243 1.476,-1.599 1.928,-0.369 2.758,7.508 5.517,15.016 8.275,22.523 C 2.385,0.875 0.452,1.23 0,0" /></g><g
           transform="translate(428.2028,131.8181)"
           id="g276"><path
             id="path278"
             style="fill:#263238;fill-opacity:1;fill-rule:nonzero;stroke:none"
             d="m 0,0 c -0.548,0.146 -1.056,-0.139 -1.304,-0.66 l -2.871,-6.054 c -0.231,-0.487 0.077,-1.122 0.562,-1.251 0.547,-0.144 1.055,0.14 1.302,0.661 0.958,2.018 1.915,4.035 2.873,6.054 C 0.793,-0.763 0.484,-0.128 0,0" /></g><g
           transform="translate(432.193,191.5124)"
           id="g280"><path
             id="path282"
             style="fill:#cfd8dc;fill-opacity:1;fill-rule:nonzero;stroke:none"
             d="m 0,0 c -12.492,-9.56 -29.141,-13.25 -44.502,-9.859 -1.246,0.275 -1.855,-1.632 -0.595,-1.911 16.093,-3.551 33.345,0.265 46.433,10.281 C 2.36,-0.705 1.017,0.777 0,0" /></g><g
           transform="translate(394.7155,239.8347)"
           id="g284"><path
             id="path286"
             style="fill:#cfd8dc;fill-opacity:1;fill-rule:nonzero;stroke:none"
             d="M 0,0 C -0.823,2.363 -2.18,4.509 -4.051,6.184 -4.438,6.531 -5.049,6.667 -5.463,6.261 -5.814,5.915 -5.957,5.221 -5.54,4.848 c 0.421,-0.376 0.819,-0.777 1.191,-1.202 0.186,-0.212 0.366,-0.43 0.537,-0.654 0.086,-0.111 0.17,-0.224 0.253,-0.339 0.038,-0.05 0.073,-0.102 0.11,-0.153 0.01,-0.014 0.006,-0.008 0.01,-0.013 0.009,-0.015 0.009,-0.015 0.029,-0.045 0.303,-0.459 0.581,-0.931 0.828,-1.421 0.128,-0.252 0.247,-0.508 0.358,-0.767 0.056,-0.13 0.11,-0.26 0.161,-0.392 l 0.068,-0.175 c 0.011,-0.029 0.017,-0.045 0.023,-0.061 0.005,-0.015 0.009,-0.027 0.018,-0.052 0.172,-0.493 0.625,-0.913 1.19,-0.764 C -0.291,-1.065 0.184,-0.527 0,0" /></g><g
           transform="translate(384.6862,282.9372)"
           id="g288"><path
             id="path290"
             style="fill:#ffffff;fill-opacity:1;fill-rule:nonzero;stroke:none"
             d="m 0,0 c 3.27,-0.854 13.072,7.343 16.516,7.257 3.443,-0.087 12.48,0.449 15.08,-8.029 2.202,-7.186 -1.964,-16.124 -4.191,-23.455 -1.177,-3.873 -2.63,-7.728 -2.96,-11.695 -0.5,-6.099 1.745,-11.954 5.117,-16.767 3.372,-4.804 18.187,-18.645 23.558,-38.061 -11.935,-13.947 -37.105,-18.118 -53.736,-13.349 -1.023,13.152 -8.144,50.173 -8.404,63.607 -0.015,0.804 -0.325,1.35 -0.82,1.794 -4.353,3.896 -6.687,9.572 -5.224,15.228 C -12.732,-14.452 -8.738,-9.646 0,0" /></g><g
           id="g292"><g
             id="g294" /><g
             id="g306"><g
               style="opacity:0.630005"
               id="g304"
               clip-path="url(#clipPath298)"><g
                 id="g302"
                 transform="translate(374.8463,244.239)"><path
                   id="path300"
                   style="fill:#cfd8dc;fill-opacity:1;fill-rule:nonzero;stroke:none"
                   d="m 0,0 c 0.495,-0.443 0.805,-0.99 0.82,-1.794 0.093,-4.762 0.811,-10.531 1.74,-16.574 1.33,-0.375 2.697,-0.708 4.086,-1.012 2.01,0.937 3.998,1.931 5.925,2.964 3.763,2.017 7.301,4.441 10.505,7.265 3.286,2.895 5.845,6.21 8.228,9.868 1.147,1.762 2.278,3.537 3.474,5.263 0.61,2.855 1.609,5.669 2.467,8.492 l 0.036,0.12 c 0.889,2.941 -2.71,5.154 -4.974,3.079 C 22.63,8.804 9.374,3.939 -4.442,6.078 -3.461,3.807 -1.931,1.729 0,0" /></g></g></g></g><g
           transform="translate(399.694,285.1188)"
           id="g308"><path
             id="path310"
             style="fill:#cfd8dc;fill-opacity:1;fill-rule:nonzero;stroke:none"
             d="m 0,0 c -0.99,-2.365 -2.878,-4.326 -5.267,-5.297 -2.682,-1.091 -5.749,-0.874 -8.285,0.501 -0.567,0.307 -1.037,-0.576 -0.47,-0.883 2.752,-1.492 6.142,-1.758 9.059,-0.571 2.62,1.065 4.753,3.17 5.846,5.779 C 1.13,0.119 0.249,0.594 0,0" /></g><g
           transform="translate(329.2145,247.4518)"
           id="g312"><path
             id="path314"
             style="fill:#7cb342;fill-opacity:1;fill-rule:nonzero;stroke:none"
             d="M 0,0 -11.714,22.737 0.456,29.007 12.17,6.27 Z" /></g><g
           transform="translate(329.5787,249.7258)"
           id="g316"><path
             id="path318"
             style="fill:none;stroke:#f2e0be;stroke-width:1;stroke-linecap:butt;stroke-linejoin:miter;stroke-miterlimit:10;stroke-dasharray:none;stroke-opacity:1"
             d="M 0,0 -10.015,19.44 -0.273,24.458 9.742,5.019 Z" /></g><g
           transform="translate(326.4567,260.5724)"
           id="g320"><path
             id="path322"
             style="fill:#f2e0be;fill-opacity:1;fill-rule:nonzero;stroke:none"
             d="M 0,0 V 0 C -0.86,1.669 -0.204,3.719 1.465,4.579 3.134,5.438 5.184,4.783 6.044,3.114 6.903,1.445 6.247,-0.605 4.578,-1.465 2.909,-2.325 0.859,-1.669 0,0" /></g><g
           transform="translate(342.9088,258.2766)"
           id="g324"><path
             id="path326"
             style="fill:#ffc9b9;fill-opacity:1;fill-rule:nonzero;stroke:none"
             d="m 0,0 -0.213,0.1 c 0,0 -2.456,1.154 -4.398,2.067 C -5.61,2.636 -6.787,2.062 -7.03,0.985 -7.251,0.012 -7.533,-0.964 -7.571,-1.241 c -0.389,-2.805 -0.29,-5.655 0.36,-8.413 0.354,-1.497 0.688,-3.487 2.265,-4.173 0.251,-0.109 3.189,-1.308 3.169,-1.378 10e-4,10e-4 0.515,1.805 0.515,1.805 l 1.295,4.542 z" /></g><g
           transform="translate(363.4303,247.155)"
           id="g328"><path
             id="path330"
             style="fill:#ffc9b9;fill-opacity:1;fill-rule:nonzero;stroke:none"
             d="m 0,0 -21.462,3.53 -0.837,-7.613 36.79,-12.253 1.151,7.793 0.859,5.829 z" /></g><g
           transform="translate(379.9313,244.4411)"
           id="g332"><path
             id="path334"
             style="fill:#ffc9b9;fill-opacity:1;fill-rule:nonzero;stroke:none"
             d="m 0,0 -16.501,2.714 -21.462,3.53 -0.662,-6.022 c 12.17,-3.59 24.358,-9.236 37.218,-9.76 l 0.548,3.709 z" /></g><g
           transform="translate(382.3297,234.9089)"
           id="g336"><path
             id="path338"
             style="fill:#ffc9b9;fill-opacity:1;fill-rule:nonzero;stroke:none"
             d="m 0,0 c 8.588,8.527 17.108,16.281 23.827,26.727 -3.04,1.888 -5.588,4.76 -8.632,6.641 L -2.398,9.532 -3.806,-0.006 C -2.544,-0.057 -1.274,-0.051 0,0" /></g><g
           transform="translate(398.6061,269.7399)"
           id="g340"><path
             id="path342"
             style="fill:#fda98f;fill-opacity:1;fill-rule:nonzero;stroke:none"
             d="m 0,0 -1.081,-1.463 c 3.044,-1.881 5.592,-4.753 8.632,-6.641 -6.719,-10.446 -15.239,-18.2 -23.827,-26.727 -1.275,-0.051 -2.544,-0.057 -3.806,-0.006 -12.859,0.524 -23.412,4.095 -35.582,7.685 l -1.811,0.484 36.79,-12.253 c 11.999,-3.996 32.227,31.136 32.227,31.136 z" /></g><g
           transform="translate(410.9098,262.6266)"
           id="g344"><path
             id="path346"
             style="fill:#cfd8dc;fill-opacity:1;fill-rule:nonzero;stroke:none"
             d="m 0,0 c -4.011,2.661 -8.021,5.321 -12.03,7.981 -0.45,0.299 -1.116,0.033 -1.354,-0.411 -0.275,-0.516 -0.039,-1.054 0.412,-1.354 l 12.031,-7.981 c 0.45,-0.298 1.116,-0.032 1.352,0.412 C 0.687,-0.838 0.451,-0.299 0,0" /></g><g
           transform="translate(373.3854,317.6437)"
           id="g348"><path
             id="path350"
             style="fill:#ffc9b9;fill-opacity:1;fill-rule:nonzero;stroke:none"
             d="m 0,0 c 5.671,-2.795 13.584,-7.215 19.593,-3.206 1.084,0.723 1.872,1.59 2.42,2.53 0.677,0.058 1.368,-0.091 2.076,-0.593 1.892,-1.342 2.695,-4.038 1.946,-6.217 -0.798,-2.322 -2.662,-3.121 -5.097,-3.445 0.457,-6.679 2.344,-11.704 4.357,-18.451 -0.743,-3.443 -1.992,-5.435 -4.733,-6.735 -2.741,-1.3 -3.4,-1.258 -6.254,-0.231 -0.624,3.37 -1.377,7.946 -2.529,11.175 -2.136,-1.424 -7.214,-2.98 -9.516,-2.914 C 1.394,-28.063 -7.812,-13.942 -7.911,5.522 -5.615,3.301 -2.941,1.45 0,0" /></g><g
           transform="translate(380.2155,290.3801)"
           id="g352"><path
             id="path354"
             style="fill:#fda98f;fill-opacity:1;fill-rule:nonzero;stroke:none"
             d="M 0,0 C 1.909,0.566 3.831,1.346 4.949,2.09 5.95,-0.717 6.65,-4.543 7.227,-7.71 L 6.957,4.44 Z" /></g><g
           transform="translate(393.3922,313.6428)"
           id="g356"><path
             id="path358"
             style="fill:#fda98f;fill-opacity:1;fill-rule:nonzero;stroke:none"
             d="M 0,0 C 0.638,0.808 1.447,1.397 2.346,1.774 2.833,1.979 3.085,1.121 2.606,0.909 1.811,0.555 1.124,0.001 0.573,-0.735 0.312,-1.084 0.094,-1.467 -0.084,-1.877 -0.245,-2.25 -0.293,-2.552 -0.592,-2.805 -0.753,-2.94 -1.015,-2.829 -1.071,-2.615 -1.3,-1.747 -0.486,-0.615 0,0" /></g><g
           transform="translate(378.0514,311.3718)"
           id="g360"><path
             id="path362"
             style="fill:#472c1f;fill-opacity:1;fill-rule:nonzero;stroke:none"
             d="M 0,0 C -0.076,0.379 -0.186,0.761 -0.081,1.142 0.07,1.691 0.731,1.897 1.162,1.517 1.457,1.255 1.578,0.877 1.721,0.519 1.852,0.191 1.95,-0.122 2.017,-0.469 2.234,-1.608 0.735,-2.07 0.292,-0.989 0.157,-0.66 0.069,-0.348 0,0" /></g><g
           transform="translate(368.4117,310.2145)"
           id="g364"><path
             id="path366"
             style="fill:#472c1f;fill-opacity:1;fill-rule:nonzero;stroke:none"
             d="M 0,0 C -0.063,0.381 -0.16,0.766 -0.043,1.144 0.127,1.687 0.794,1.871 1.212,1.477 1.498,1.206 1.606,0.824 1.737,0.461 1.856,0.129 1.945,-0.187 2,-0.537 2.18,-1.682 0.666,-2.094 0.259,-0.999 0.135,-0.666 0.058,-0.351 0,0" /></g><g
           transform="translate(375.5621,298.0119)"
           id="g368"><path
             id="path370"
             style="fill:#ffffff;fill-opacity:1;fill-rule:nonzero;stroke:none"
             d="M 0,0 C 2.396,0.841 4.657,2.055 6.687,3.579 5.15,1.463 2.837,0.3 0.421,-0.495 0.289,-0.322 0.151,-0.155 0,0" /></g><g
           transform="translate(382.2496,301.5905)"
           id="g372"><path
             id="path374"
             style="fill:#b51c1c;fill-opacity:1;fill-rule:nonzero;stroke:none"
             d="m 0,0 c 0.102,0.076 0.206,0.149 0.307,0.228 0.034,-0.474 0.016,-0.956 -0.044,-1.434 -0.138,-1.081 -0.524,-2.131 -1.219,-2.95 -1.002,-1.18 -2.471,-1.957 -4.013,-2.097 -0.262,0.477 -0.517,0.972 -0.802,1.444 -0.154,0.254 -0.318,0.501 -0.496,0.735 C -3.851,-3.279 -1.537,-2.115 0,0" /></g><g
           transform="translate(374.9283,318.5847)"
           id="g376"><path
             id="path378"
             style="fill:#bf360c;fill-opacity:1;fill-rule:nonzero;stroke:none"
             d="M 0,0 C 2.474,0.707 4.983,0.486 7.296,-0.643 7.847,-0.912 7.402,-1.755 6.851,-1.486 4.771,-0.47 2.521,-0.271 0.293,-0.907 -0.296,-1.076 -0.59,-0.168 0,0" /></g><g
           transform="translate(366.4977,315.2018)"
           id="g380"><path
             id="path382"
             style="fill:#bf360c;fill-opacity:1;fill-rule:nonzero;stroke:none"
             d="M 0,0 C 0.478,0.961 1.299,1.672 2.311,2.023 2.892,2.224 3.183,1.316 2.604,1.116 1.819,0.844 1.211,0.297 0.843,-0.445 0.57,-0.995 -0.273,-0.55 0,0" /></g><g
           transform="translate(374.152,300.8127)"
           id="g384"><path
             id="path386"
             style="fill:#472c1f;fill-opacity:1;fill-rule:nonzero;stroke:none"
             d="m 0,0 c -0.562,0.34 -1.269,0.271 -1.896,0.355 -0.36,0.048 -0.884,0.19 -1.036,0.558 -0.098,0.237 0.046,0.516 0.134,0.736 0.132,0.332 0.267,0.664 0.398,0.997 0.262,0.666 0.544,1.324 0.73,2.016 C -1.544,5.128 -2.216,5.4 -2.453,4.979 -2.854,4.267 -3.149,3.498 -3.465,2.745 -3.752,2.057 -4.205,1.284 -3.886,0.531 c 0.249,-0.587 0.837,-0.944 1.434,-1.1 0.348,-0.092 0.716,-0.106 1.073,-0.134 0.354,-0.027 0.676,-0.102 1.019,-0.188 C 0.178,-1.024 0.47,-0.284 0,0" /></g><g
           transform="translate(342.3727,259.0593)"
           id="g388"><path
             id="path390"
             style="fill:#ffc9b9;fill-opacity:1;fill-rule:nonzero;stroke:none"
             d="m 0,0 c -3.516,2.38 -7.468,4.08 -11.607,5.02 -1.256,0.285 -1.712,-1.664 -0.456,-1.948 3.984,-0.905 7.739,-2.547 11.122,-4.837 0.447,-0.303 1.117,-0.029 1.352,0.412 C 0.688,-0.834 0.448,-0.304 0,0" /></g><g
           transform="translate(337.4528,258.2648)"
           id="g392"><path
             id="path394"
             style="fill:#ffc9b9;fill-opacity:1;fill-rule:nonzero;stroke:none"
             d="M 0,0 C -1.89,1.684 -4.281,2.803 -6.798,3.11 -7.315,3.173 -7.894,2.935 -8,2.364 -8.091,1.879 -7.81,1.23 -7.254,1.162 c 0.559,-0.068 1.112,-0.173 1.656,-0.321 0.614,-0.167 0.952,-0.288 1.495,-0.534 1.08,-0.488 1.91,-1.031 2.745,-1.775 0.391,-0.348 1.059,-0.362 1.413,0.055 C 0.4,-1.006 0.417,-0.372 0,0" /></g><g
           transform="translate(336.7272,255.4489)"
           id="g396"><path
             id="path398"
             style="fill:#ffc9b9;fill-opacity:1;fill-rule:nonzero;stroke:none"
             d="m 0,0 c -1.638,1.563 -3.679,2.677 -5.875,3.222 -0.508,0.126 -1.104,-0.22 -1.202,-0.745 -0.101,-0.54 0.202,-1.068 0.746,-1.203 0.249,-0.062 0.497,-0.13 0.742,-0.207 0.116,-0.037 0.231,-0.075 0.345,-0.114 0.057,-0.02 0.114,-0.041 0.171,-0.062 0.002,0 0.001,0 0.003,0 0.005,-0.003 0.001,-0.001 0.008,-0.005 0.476,-0.201 0.944,-0.406 1.397,-0.655 0.212,-0.116 0.42,-0.239 0.625,-0.368 0.102,-0.065 0.204,-0.131 0.304,-0.198 0.053,-0.037 0.105,-0.073 0.158,-0.109 0.012,-0.009 0.02,-0.015 0.042,-0.031 0.412,-0.308 0.806,-0.637 1.179,-0.993 0.378,-0.362 1.067,-0.353 1.413,0.055 C 0.41,-0.995 0.405,-0.386 0,0" /></g><g
           transform="translate(337.3278,250.9694)"
           id="g400"><path
             id="path402"
             style="fill:#ffc9b9;fill-opacity:1;fill-rule:nonzero;stroke:none"
             d="M 0,0 C -1.679,2.023 -3.797,3.52 -6.267,4.424 -6.76,4.604 -7.378,4.165 -7.469,3.678 -7.579,3.091 -7.251,2.669 -6.724,2.476 -6.693,2.465 -6.687,2.463 -6.677,2.459 -6.672,2.458 -6.676,2.458 -6.664,2.454 -6.607,2.43 -6.55,2.409 -6.493,2.386 -6.365,2.333 -6.238,2.28 -6.111,2.223 -5.859,2.111 -5.61,1.991 -5.365,1.863 -4.861,1.599 -4.379,1.3 -3.911,0.978 -3.907,0.975 -3.909,0.977 -3.906,0.974 -3.9,0.97 -3.904,0.973 -3.895,0.965 -3.834,0.918 -3.771,0.874 -3.71,0.828 -3.6,0.744 -3.491,0.659 -3.384,0.572 -3.169,0.398 -2.96,0.217 -2.756,0.03 c 0.203,-0.187 0.401,-0.38 0.592,-0.579 0.096,-0.1 0.189,-0.201 0.282,-0.305 0.041,-0.045 0.081,-0.091 0.122,-0.137 0.008,-0.009 0.2,-0.237 0.074,-0.085 0.332,-0.401 0.901,-0.642 1.381,-0.305 C 0.094,-1.102 0.357,-0.431 0,0" /></g><g
           transform="translate(296.7867,233.3141)"
           id="g404"><path
             id="path406"
             style="fill:#fda98f;fill-opacity:1;fill-rule:nonzero;stroke:none"
             d="m 0,0 12.752,-0.825 7.658,5.911 h 2.103 L 17.919,10.433 11.906,11.445 0,3.199 Z" /></g><g
           transform="translate(296.7867,236.5134)"
           id="g408"><path
             id="path410"
             style="fill:#ffc9b9;fill-opacity:1;fill-rule:nonzero;stroke:none"
             d="m 0,0 4.391,1.005 c 2.933,0.672 5.505,2.426 7.203,4.911 l 1.356,1.988 8.594,1.5 c 0.56,0.098 0.969,0.584 0.969,1.153 0,0.658 -0.543,1.186 -1.201,1.169 L 10.811,13.052 C 8.247,13.376 5.676,12.502 3.841,10.683 L 0,6.877 Z" /></g><g
           transform="translate(240.736,57.6208)"
           id="g412"><path
             id="path414"
             style="fill:#ffc9b9;fill-opacity:1;fill-rule:nonzero;stroke:none"
             d="m 0,0 h -12.954 l -0.08,4.693 H 0.101 Z" /></g><g
           transform="translate(263.2145,47.8366)"
           id="g416"><path
             id="path418"
             style="fill:#1e90ff;fill-opacity:1;fill-rule:nonzero;stroke:none"
             d="M 0,0 -22.134,9.784 H -36.438 L -38.783,-2.297 H 1.298 Z" /></g><g
           transform="translate(224.4318,45.5397)"
           id="g420"><path
             id="path422"
             style="fill:#ffffff;fill-opacity:1;fill-rule:nonzero;stroke:none"
             d="M 0,0 -0.37,-1.908 H 41.158 L 40.081,0 Z" /></g><g
           transform="translate(178.1188,150.1325)"
           id="g424"><path
             id="path426"
             style="fill:#263238;fill-opacity:1;fill-rule:nonzero;stroke:none"
             d="m 0,0 v 52.217 l 6.9,-2.65 c 4.217,-1.618 6.337,-6.335 4.749,-10.562 -1.091,-2.904 -0.182,-6.181 2.25,-8.108 L 66.454,-10.74 c 2.402,-1.904 3.728,-4.858 3.551,-7.917 L 66.028,-87.818 H 44.792 l -2.249,59.299 z" /></g><g
           transform="translate(180.0304,199.0475)"
           id="g428"><path
             id="path430"
             style="fill:#37474f;fill-opacity:1;fill-rule:nonzero;stroke:none"
             d="m 0,0 0.179,-18.153 33.398,-37.404 c 2.508,-2.808 3.866,-6.459 3.804,-10.223 -0.129,-7.911 -4.972,-14.98 -12.302,-17.958 l -52.269,-21.24 -7.19,22.804 44.014,16.91 -23.624,9.659 c -18.351,7.502 -30.342,25.359 -30.342,45.184 z" /></g><g
           transform="translate(202.9484,132.9255)"
           id="g432"><path
             id="path434"
             style="fill:#263238;fill-opacity:1;fill-rule:nonzero;stroke:none"
             d="m 0,0 c -7.509,0.558 -14.837,2.712 -21.484,6.238 -1.14,0.605 -2.048,-1.177 -0.912,-1.78 6.982,-3.703 14.632,-5.87 22.508,-6.455 C 1.392,-2.092 1.268,-0.095 0,0" /></g><g
           transform="translate(195.7374,129.6511)"
           id="g436"><path
             id="path438"
             style="fill:#263238;fill-opacity:1;fill-rule:nonzero;stroke:none"
             d="M 0,0 -5.012,3.076 C -5.458,3.35 -6.123,3.231 -6.391,2.759 -6.656,2.291 -6.55,1.673 -6.074,1.38 l 5.013,-3.075 c 0.446,-0.274 1.11,-0.156 1.378,0.317 C 0.583,-0.91 0.476,-0.292 0,0" /></g><g
           transform="translate(216.8629,256.0241)"
           id="g440"><path
             id="path442"
             style="fill:#1e90ff;fill-opacity:0.94117647;fill-rule:nonzero;stroke:none"
             d="M 0,0 C 2.676,4.576 5.372,8.893 9.968,6.105 17.118,1.768 23.722,-1.222 32.182,-4.391 L 23.783,-22.739 C 15.357,-20.503 5.559,-19.217 -2.1,-14.571 -6.675,-11.797 -2.734,-4.675 0,0" /></g><g
           transform="translate(258.3815,246.3454)"
           id="g444"><path
             id="path446"
             style="fill:#ffc9b9;fill-opacity:1;fill-rule:nonzero;stroke:none"
             d="m 0,0 -8.959,4.164 c -1.983,-6.059 -4.904,-11.595 -9.017,-16.351 l 17.077,-5.331 39.304,4.487 v 10.076 z" /></g><g
           transform="translate(255.818,232.2097)"
           id="g448"><path
             id="path450"
             style="fill:#ffc9b9;fill-opacity:1;fill-rule:nonzero;stroke:none"
             d="m 0,0 40.969,3.912 v 7.269 L 2.563,14.136 -5.525,17.895 C -5.805,12.533 -7.314,7.786 -10.062,3.658 Z" /></g><g
           transform="translate(255.818,232.2097)"
           id="g452"><path
             id="path454"
             style="fill:#fda98f;fill-opacity:1;fill-rule:nonzero;stroke:none"
             d="m 0,0 -10.062,3.658 c 2.748,4.128 4.257,8.875 4.537,14.237 l -1.248,0.58 -0.394,0.17 C -8.542,12.675 -10.906,6.752 -15.29,1.911 L 1.664,-3.382 40.969,1.104 v 2.808 z" /></g><g
           transform="translate(248.3537,251.57)"
           id="g456"><path
             id="path458"
             style="fill:#597095;fill-opacity:1;fill-rule:nonzero;stroke:none"
             d="m 0,0 c -1.85,-6.143 -4.665,-11.923 -8.353,-17.172 -0.74,-1.054 0.944,-2.132 1.684,-1.08 3.782,5.383 6.682,11.358 8.58,17.658 C 2.281,0.636 0.373,1.237 0,0" /></g><g
           transform="translate(190.8395,193.9811)"
           id="g460"><path
             id="path462"
             style="fill:#1e90ff;fill-opacity:1;fill-rule:nonzero;stroke:none"
             d="m 0,0 c 0.562,4.003 1.852,7.88 3.336,11.626 5.981,15.087 14.518,29.733 25.607,41.631 3.595,3.856 7.52,7.371 11.759,10.464 C 29.373,75.385 11.08,85.646 -6.815,89.507 -14.251,91.111 -21.731,86.985 -24.389,79.858 L -38,63.025 C -57.374,39.064 -63.034,6.813 -52.978,-22.312 v 0 C -30.016,-6.692 -5.287,-4.637 -0.014,-6.429 -0.385,-4.323 -0.298,-2.128 0,0" /></g><g
           transform="translate(169.3502,198.86)"
           id="g464"><path
             id="path466"
             style="fill:#2a5075;fill-opacity:0;fill-rule:nonzero;stroke:none"
             d="m 0,0 c -8.232,-0.919 -16.317,-2.942 -23.924,-6.399 -6.874,30.933 9.878,58.91 29.321,82.033 2.777,3.303 -1.991,7.732 -4.982,4.622 C -1.004,78.78 -2.146,77 -2.9,74.979 L -16.511,58.146 C -35.884,34.186 -41.545,1.935 -31.489,-27.19 v -10e-4 c 2.04,1.387 4.093,2.663 6.146,3.843 0.436,2.382 1.196,4.707 2.419,6.949 4.286,9.288 14.188,10.919 23.505,13.281 C 2.495,-2.633 1.962,0.219 0,0" /></g><g
           transform="translate(187.1408,194.404)"
           id="g468"><path
             id="path470"
             style="fill:#0800da;fill-opacity:1;fill-rule:nonzero;stroke:none"
             d="m 0,0 c -6.25,0.318 -12.458,-0.754 -18.262,-3.08 -1.192,-0.478 -0.228,-2.231 0.956,-1.757 5.468,2.191 11.368,3.137 17.245,2.838 C 1.226,-2.064 1.286,-0.064 0,0" /></g><g
           transform="translate(214.2374,242.0231)"
           id="g472"><path
             id="path474"
             style="fill:#1e90ff;fill-opacity:0;fill-rule:nonzero;stroke:none"
             d="m 0,0 c -10.568,-11.493 -18.365,-25.437 -22.572,-40.479 -1.197,-4.279 -2.087,-8.636 -2.702,-13.036 -0.179,-1.273 1.821,-1.35 1.998,-0.083 2.104,15.038 7.818,29.509 16.485,41.972 2.477,3.561 5.191,6.945 8.127,10.137 C 2.201,-0.548 0.871,0.947 0,0" /></g><g
           transform="translate(150.0783,212.3181)"
           id="g476"><path
             id="path478"
             style="fill:#ffc9b9;fill-opacity:1;fill-rule:nonzero;stroke:none"
             d="m 0,0 c 0,0 6.626,-2.954 11.073,-5.358 1.385,-4.974 -2.294,-9.686 -6.394,-11.81 -3.322,-1.721 -7.556,-1.523 -10.703,0.5 -3.147,2.022 -5.085,5.794 -4.898,9.53 z" /></g><g
           transform="translate(170.0167,193.5876)"
           id="g480"><path
             id="path482"
             style="fill:#ffc9b9;fill-opacity:1;fill-rule:nonzero;stroke:none"
             d="m 0,0 c -0.901,5.793 -4.428,10.775 -9.51,13.667 -2.074,1.18 -3.956,-2.011 -1.882,-3.191 C -7.063,8.013 -4.339,3.935 -3.576,-0.971 -3.21,-3.319 0.363,-2.337 0,0" /></g><g
           transform="translate(165.7941,190.7624)"
           id="g484"><path
             id="path486"
             style="fill:#ffc9b9;fill-opacity:1;fill-rule:nonzero;stroke:none"
             d="m 0,0 c -0.901,5.792 -4.428,10.775 -9.509,13.666 -2.075,1.181 -3.957,-2.011 -1.883,-3.19 C -7.063,8.013 -4.339,3.935 -3.576,-0.971 -3.21,-3.319 0.364,-2.338 0,0" /></g><g
           transform="translate(160.4376,189.2663)"
           id="g488"><path
             id="path490"
             style="fill:#ffc9b9;fill-opacity:1;fill-rule:nonzero;stroke:none"
             d="m 0,0 c -0.901,5.793 -4.428,10.775 -9.509,13.667 -2.075,1.181 -3.957,-2.011 -1.883,-3.19 C -7.063,8.014 -4.339,3.936 -3.576,-0.97 -3.21,-3.319 0.363,-2.337 0,0" /></g><g
           transform="translate(154.8605,189.2888)"
           id="g492"><path
             id="path494"
             style="fill:#ffc9b9;fill-opacity:1;fill-rule:nonzero;stroke:none"
             d="m 0,0 c -0.901,5.793 -4.427,10.775 -9.509,13.667 -2.074,1.181 -3.957,-2.011 -1.883,-3.19 C -7.063,8.014 -4.338,3.936 -3.576,-0.97 -3.21,-3.319 0.364,-2.337 0,0" /></g><g
           transform="translate(150.0783,212.3181)"
           id="g496"><path
             id="path498"
             style="fill:#ffc9b9;fill-opacity:1;fill-rule:nonzero;stroke:none"
             d="m 0,0 -13.511,38.708 38.78,13.806 -8.147,17.329 -50.12,-16.497 c -3.108,-1.023 -4.612,-4.543 -3.203,-7.496 l 25.279,-52.988 z" /></g><g
           transform="translate(175.3468,264.8322)"
           id="g500"><path
             id="path502"
             style="fill:#fda98f;fill-opacity:1;fill-rule:nonzero;stroke:none"
             d="m 0,0 -8.147,17.329 -14.02,-4.615 c -0.404,-5.522 -0.587,-10.99 0.958,-16.028 -7.034,-3.899 -15.455,-6.855 -22.989,-9.026 3.028,-2.06 5.403,-4.486 7.42,-7.201 l -2.002,5.734 z" /></g><g
           transform="translate(131.1491,252.4924)"
           id="g504"><path
             id="path506"
             style="fill:#ffc9b9;fill-opacity:1;fill-rule:nonzero;stroke:none"
             d="m 0,0 c 7.534,2.17 15.955,5.127 22.989,9.026 -1.545,5.038 -1.363,10.506 -0.958,16.028 l -36.1,-11.882 c -3.108,-1.023 -4.612,-4.543 -3.203,-7.497 L 8.007,-47.312 18.929,-40.174 7.419,-7.201 C 5.402,-4.486 3.028,-2.06 0,0" /></g><g
           transform="translate(147.7653,254.8889)"
           id="g508"><path
             id="path510"
             style="fill:#1e90ff;fill-opacity:1;fill-rule:nonzero;stroke:none"
             d="m 0,0 c 8.875,3.434 17.223,5.692 26.898,7.586 5.301,1.038 9.697,6.279 8.439,12.097 -1.183,5.476 3.071,8.82 -2.701,9.261 C 18.017,30.06 3.299,24.169 -6.274,20.606 -5.7,13.602 -3.543,6.393 0,0" /></g><g
           transform="translate(141.1295,275.0866)"
           id="g512"><path
             id="path514"
             style="fill:#575757;fill-opacity:1;fill-rule:nonzero;stroke:none"
             d="M 0,0 C 0.72,-7.106 2.955,-13.956 6.568,-20.118 7.22,-21.231 8.903,-20.15 8.252,-19.041 4.817,-13.182 2.683,-6.651 1.998,0.105 1.869,1.38 -0.13,1.286 0,0" /></g><g
           transform="translate(224.2008,302.2663)"
           id="g516"><path
             id="path518"
             style="fill:#3f2500;fill-opacity:1;fill-rule:nonzero;stroke:none"
             d="m 0,0 c 3.721,1.684 5.786,5.764 5.4,9.576 -0.386,3.812 -2.935,7.259 -6.289,9.506 -3.354,2.247 -7.446,3.397 -11.55,3.916 -3.459,0.437 -7.021,0.446 -10.397,-0.373 -1.714,-0.417 -3.491,-1.141 -4.365,-2.565 -0.874,-1.424 -0.281,-3.65 1.447,-4.012 -1.444,0.234 -3.009,-0.511 -3.642,-1.734 -0.634,-1.222 -0.28,-2.815 0.823,-3.709 -1.668,0.162 -3.394,-0.759 -4.076,-2.175 -0.681,-1.417 -0.266,-3.218 0.982,-4.254 -1.704,-0.562 -2.403,-2.558 -2.021,-4.192 0.382,-1.634 1.547,-2.999 2.608,-4.353 2.683,-3.425 4.896,-7.164 6.569,-11.099 2.473,0.882 4.799,2.112 6.875,3.635" /></g><g
           transform="translate(225.7638,311.4841)"
           id="g520"><path
             id="path522"
             style="fill:#ffc9b9;fill-opacity:1;fill-rule:nonzero;stroke:none"
             d="m 0,0 c -2.164,0.42 -4.329,0.276 -6.519,0.017 -1.861,-0.22 -7.56,-1.448 -7.56,-1.448 -1.355,-3.963 -2.02,-6.596 -5.216,-9.303 -0.304,-0.257 -0.642,-0.524 -1.04,-0.535 -0.533,-0.014 -1.119,0.394 -1.625,0.545 -0.718,0.214 -1.418,0.475 -2.117,0.745 -2.19,0.847 -4.57,2.037 -6.713,0.44 -1.782,-1.329 -2.254,-4.026 -1.247,-6.008 1.007,-1.981 3.266,-3.171 5.489,-3.155 0.886,-6.311 0.71,-8.633 -0.245,-14.934 1.098,-2.992 3.923,-6.726 6.543,-7.546 2.62,-0.821 5.583,-0.844 8.012,0.435 0.135,3.1 0.431,6.126 1.057,9.164 2.057,-0.345 4.266,-0.451 6.323,-0.102 0.78,0.132 1.606,0.345 2.127,0.939 0.392,0.447 0.553,1.045 0.703,1.62 C 0.362,-19.937 0.96,-9.685 0,0" /></g><g
           transform="translate(213.5255,270.737)"
           id="g524"><path
             id="path526"
             style="fill:#fda98f;fill-opacity:1;fill-rule:nonzero;stroke:none"
             d="M 0,0 C 0.135,3.1 0.431,6.126 1.058,9.165 2.208,8.971 3.406,8.857 4.598,8.852 1.921,9.338 0.061,10.367 -2.124,10.99 -1.755,6.97 -0.582,-0.306 0,0" /></g><g
           transform="translate(198.7726,299.0148)"
           id="g528"><path
             id="path530"
             style="fill:#fda98f;fill-opacity:1;fill-rule:nonzero;stroke:none"
             d="M 0,0 C -0.673,0.644 -1.473,1.07 -2.325,1.295 -2.788,1.417 -2.906,0.617 -2.45,0.487 -1.692,0.27 -1.008,-0.14 -0.421,-0.731 -0.144,-1.011 0.101,-1.326 0.312,-1.672 0.503,-1.986 0.583,-2.25 0.883,-2.439 1.044,-2.541 1.265,-2.408 1.289,-2.209 1.385,-1.402 0.513,-0.49 0,0" /></g><g
           transform="translate(215.2389,302.0724)"
           id="g532"><path
             id="path534"
             style="fill:#472c1f;fill-opacity:1;fill-rule:nonzero;stroke:none"
             d="M 0,0 C 0.02,0.349 0.071,0.705 -0.071,1.033 -0.276,1.507 -0.895,1.608 -1.232,1.213 -1.464,0.941 -1.524,0.587 -1.608,0.249 -1.684,-0.062 -1.733,-0.355 -1.749,-0.675 -1.801,-1.723 -0.399,-1.948 -0.138,-0.924 -0.058,-0.612 -0.019,-0.321 0,0" /></g><g
           transform="translate(225.2404,302.8981)"
           id="g536"><path
             id="path538"
             style="fill:#472c1f;fill-opacity:1;fill-rule:nonzero;stroke:none"
             d="M 0,0 C -0.069,0.343 -0.109,0.7 -0.33,0.982 -0.647,1.389 -1.271,1.331 -1.499,0.863 -1.655,0.542 -1.624,0.184 -1.619,-0.165 -1.614,-0.484 -1.587,-0.78 -1.522,-1.094 -1.308,-2.121 0.105,-1.986 0.1,-0.929 0.098,-0.607 0.063,-0.315 0,0" /></g><g
           transform="translate(214.2384,286.1437)"
           id="g540"><path
             id="path542"
             style="fill:#fda98f;fill-opacity:1;fill-rule:nonzero;stroke:none"
             d="M 0,0 C 1.744,-0.149 3.344,-0.75 4.769,-1.762 5.147,-2.03 4.692,-2.589 4.314,-2.321 2.989,-1.38 1.507,-0.851 -0.11,-0.712 -0.573,-0.673 -0.46,0.04 0,0" /></g><g
           transform="translate(222.6925,309.4543)"
           id="g544"><path
             id="path546"
             style="fill:#3f2500;fill-opacity:1;fill-rule:nonzero;stroke:none"
             d="M 0,0 C 1.238,0.812 3.485,-0.422 4.11,-1.579 4.329,-1.984 3.861,-2.581 3.414,-2.45 2.814,-2.275 2.297,-1.931 1.708,-1.724 1.141,-1.524 0.42,-1.521 -0.028,-1.095 -0.332,-0.805 -0.398,-0.262 0,0" /></g><g
           transform="translate(211.9132,308.1291)"
           id="g548"><path
             id="path550"
             style="fill:#3f2500;fill-opacity:1;fill-rule:nonzero;stroke:none"
             d="M 0,0 C 1.192,1.426 3.849,1.814 5.598,1.692 6.432,1.633 6.33,0.404 5.571,0.28 4.65,0.13 3.759,0.021 2.864,-0.266 2.103,-0.51 1.334,-0.9 0.538,-0.98 0.023,-1.031 -0.343,-0.411 0,0" /></g><g
           transform="translate(212.8307,294.2477)"
           id="g552"><path
             id="path554"
             style="fill:#f3f3f3;fill-opacity:1;fill-rule:nonzero;stroke:none"
             d="M 0,0 C 2.903,-1.662 6.076,-2.852 9.355,-3.511 8.976,-4.027 8.685,-4.604 8.43,-5.2 5.491,-4.619 2.672,-3.511 0.304,-1.773 0.146,-1.191 0.04,-0.594 0,0" /></g><g
           transform="translate(221.2609,289.0475)"
           id="g556"><path
             id="path558"
             style="fill:#b51c1c;fill-opacity:1;fill-rule:nonzero;stroke:none"
             d="M 0,0 C -0.271,-0.636 -0.502,-1.295 -0.745,-1.935 -2.686,-2.029 -4.646,-1.32 -6.097,-0.028 -7.104,0.869 -7.767,2.106 -8.126,3.427 -5.758,1.689 -2.939,0.582 0,0" /></g><g
           transform="translate(199.0416,278.5016)"
           id="g560"><path
             id="path562"
             style="fill:#d50000;fill-opacity:1;fill-rule:nonzero;stroke:none"
             d="m 0,0 c 1.19,-6.76 7.858,-10.317 14.169,-7.661 1.06,0.446 1.522,-1.284 0.475,-1.725 C 7.466,-12.407 -0.375,-8.14 -1.725,-0.476 -1.923,0.65 -0.2,1.133 0,0" /></g><g
           transform="translate(230.2658,327.6301)"
           id="g564"><path
             id="path566"
             style="fill:#1e90ff;fill-opacity:1;fill-rule:nonzero;stroke:none"
             d="m 0,0 c -2.43,-1.29 -4.84,-2.63 -7.21,-4.04 -0.13,0.12 -0.26,0.24 -0.39,0.37 -4.7,4.51 -11.68,6.5 -18.05,5.13 -6.36,-1.36 -11.92,-6.03 -14.36,-12.07 -2.19,-5.43 -2.11,-12.4 1.19,-17.12 -0.12,-0.1 -0.23,-0.21 -0.35,-0.32 -0.94,-0.89 0.43,-2.35 1.37,-1.46 5.89,5.56 12.15,10.71 18.73,15.39 4.31,3.08 8.75,5.95 13.32,8.62 2.21,1.3 4.44,2.54 6.71,3.74 C 2.1,-1.16 1.14,0.6 0,0" /></g><g
           transform="translate(223.9269,294.153)"
           id="g568"><path
             id="path570"
             style="fill:#472c1f;fill-opacity:1;fill-rule:nonzero;stroke:none"
             d="M 0,0 C -0.82,2.926 -1.64,5.852 -2.46,8.778 -2.633,9.396 -3.611,9.186 -3.437,8.565 -2.663,5.802 -1.888,3.039 -1.114,0.276 -1.842,0.128 -2.57,-0.021 -3.298,-0.169 c -0.631,-0.129 -0.418,-1.106 0.214,-0.977 0.9,0.184 1.801,0.367 2.702,0.551 C -0.128,-0.543 0.072,-0.258 0,0" /></g><g
           transform="translate(219.7663,323.7902)"
           id="g572"><path
             id="path574"
             style="fill:#bfcee8;fill-opacity:1;fill-rule:nonzero;stroke:none"
             d="m 0,0 c -9.178,-7.054 -18.356,-14.108 -27.534,-21.162 -1.022,-0.785 0.321,-2.269 1.336,-1.489 9.178,7.054 18.356,14.108 27.534,21.162 C 2.358,-0.704 1.015,0.78 0,0" /></g><g
           transform="translate(279.7858,225.5417)"
           id="g576"><path
             id="path578"
             style="fill:#1e90ff;fill-opacity:1;fill-rule:nonzero;stroke:none"
             d="M 0,0 H 79.028 L 76.285,-47.253 H 2.742 Z" /></g><g
           transform="translate(356.0709,178.2888)"
           id="g580"><path
             id="path582"
             style="fill:#1e90ff;fill-opacity:0.94117647;fill-rule:nonzero;stroke:none"
             d="M 0,0 2.743,-13.592 H -76.285 L -73.543,0 Z" /></g><g
           transform="translate(330.4948,219.0886)"
           id="g584"><path
             id="path586"
             style="fill:#263238;fill-opacity:1;fill-rule:nonzero;stroke:none"
             d="M 0,0 V 10.146 C 0,15.973 -4.315,21.073 -10.115,21.619 -16.771,22.246 -22.39,17.005 -22.39,10.476 V 0 c 0,-0.505 -0.409,-0.914 -0.914,-0.914 -0.505,0 -0.915,0.409 -0.915,0.914 v 10.099 c 0,7.004 5.372,13.039 12.368,13.383 7.479,0.37 13.68,-5.608 13.68,-13.006 L 1.829,0 c 0,-0.505 -0.41,-0.914 -0.915,-0.914 C 0.409,-0.914 0,-0.505 0,0" /></g><g
           transform="translate(324.3531,237.6804)"
           id="g588"><path
             id="path590"
             style="fill:#ffc9b9;fill-opacity:1;fill-rule:nonzero;stroke:none"
             d="M 0,0 V 0 C -0.328,0.486 -0.2,1.146 0.286,1.475 L 4.414,4.262 C 4.899,4.59 5.56,4.462 5.889,3.977 6.217,3.49 6.089,2.83 5.603,2.502 L 1.475,-0.285 C 0.988,-0.613 0.328,-0.485 0,0" /></g><g
           transform="translate(325.693,235.7692)"
           id="g592"><path
             id="path594"
             style="fill:#ffc9b9;fill-opacity:1;fill-rule:nonzero;stroke:none"
             d="M 0,0 V 0 C -0.329,0.486 -0.2,1.146 0.285,1.475 L 4.413,4.262 C 4.899,4.59 5.56,4.462 5.888,3.976 6.216,3.49 6.088,2.83 5.602,2.502 L 1.474,-0.285 C 0.988,-0.614 0.328,-0.485 0,0" /></g><g
           transform="translate(327.4791,233.6745)"
           id="g596"><path
             id="path598"
             style="fill:#ffc9b9;fill-opacity:1;fill-rule:nonzero;stroke:none"
             d="M 0,0 V 0 C -0.328,0.485 -0.2,1.146 0.286,1.474 L 4.414,4.261 C 4.899,4.59 5.56,4.461 5.889,3.976 6.217,3.489 6.089,2.829 5.603,2.501 L 1.475,-0.286 C 0.988,-0.614 0.328,-0.486 0,0" /></g><g
           transform="translate(328.8082,231.8903)"
           id="g600"><path
             id="path602"
             style="fill:#ffc9b9;fill-opacity:1;fill-rule:nonzero;stroke:none"
             d="M 0,0 V 0 C -0.328,0.486 -0.2,1.146 0.286,1.475 L 3.88,3.901 C 4.366,4.229 5.025,4.102 5.354,3.615 5.683,3.129 5.555,2.469 5.068,2.141 L 1.475,-0.286 C 0.988,-0.614 0.328,-0.486 0,0" /></g><g
           transform="translate(160.3224,78.5895)"
           id="g604"><path
             id="path606"
             style="fill:#00cfa1;fill-opacity:1;fill-rule:nonzero;stroke:none"
             d="m 0,0 c -6.14,18.941 -12.279,37.883 -18.419,56.823 -0.788,2.432 -4.684,1.512 -3.887,-0.945 C -16.167,36.937 -10.027,17.995 -3.887,-0.945 -3.1,-3.377 0.796,-2.457 0,0" /></g><g
           transform="translate(139.2047,145.4128)"
           id="g608"><path
             id="path610"
             style="fill:#00cfa1;fill-opacity:1;fill-rule:nonzero;stroke:none"
             d="m 0,0 c -0.857,2.38 -1.715,4.761 -2.572,7.141 -0.183,0.506 -0.41,0.925 -0.883,1.222 -0.42,0.264 -1.049,0.389 -1.534,0.248 -0.949,-0.275 -1.85,-1.363 -1.471,-2.417 0.857,-2.38 1.715,-4.759 2.572,-7.14 0.183,-0.507 0.41,-0.926 0.883,-1.223 0.421,-0.264 1.049,-0.389 1.534,-0.248 C -0.521,-2.141 0.38,-1.054 0,0" /></g><g
           transform="translate(120.7731,204.6179)"
           id="g612"><path
             id="path614"
             style="fill:#00cfa1;fill-opacity:1;fill-rule:nonzero;stroke:none"
             d="m 0,0 c -2.402,7.992 -4.804,15.985 -7.206,23.979 -0.736,2.453 -4.631,1.529 -3.887,-0.947 C -8.691,15.039 -6.29,7.047 -3.888,-0.946 -3.15,-3.399 0.744,-2.476 0,0" /></g><g
           transform="translate(320.7291,238.238)"
           id="g616"><path
             id="path618"
             style="fill:#ffc9b9;fill-opacity:1;fill-rule:nonzero;stroke:none"
             d="M 0,0 V 0 C 0.604,0.524 0.668,1.439 0.143,2.043 L -4.312,7.17 C -4.836,7.773 -5.751,7.838 -6.354,7.313 -6.958,6.788 -7.022,5.874 -6.498,5.271 L -2.043,0.144 C -1.519,-0.46 -0.604,-0.524 0,0" /></g><g
           transform="translate(317.0533,236.3571)"
           id="g620"><path
             id="path622"
             style="fill:#ffc9b9;fill-opacity:1;fill-rule:nonzero;stroke:none"
             d="M 0,0 V 0 C 0.604,0.524 0.668,1.439 0.144,2.043 L -4.312,7.169 C -4.836,7.773 -5.751,7.837 -6.354,7.312 -6.958,6.788 -7.022,5.873 -6.498,5.27 L -2.043,0.144 C -1.519,-0.461 -0.604,-0.524 0,0" /></g><g
           transform="translate(313.9615,234.2263)"
           id="g624"><path
             id="path626"
             style="fill:#ffc9b9;fill-opacity:1;fill-rule:nonzero;stroke:none"
             d="M 0,0 V 0 C 0.604,0.525 0.667,1.439 0.143,2.043 L -4.312,7.17 C -4.836,7.773 -5.751,7.838 -6.354,7.313 -6.959,6.789 -7.022,5.874 -6.498,5.271 L -2.044,0.144 C -1.519,-0.46 -0.604,-0.524 0,0" /></g><g
           transform="translate(311.5817,232.3454)"
           id="g628"><path
             id="path630"
             style="fill:#ffc9b9;fill-opacity:1;fill-rule:nonzero;stroke:none"
             d="M 0,0 V 0 C 0.604,0.524 0.668,1.439 0.144,2.043 L -3.735,6.507 C -4.26,7.11 -5.175,7.174 -5.778,6.649 -6.382,6.125 -6.446,5.21 -5.922,4.606 L -2.043,0.144 C -1.519,-0.46 -0.604,-0.524 0,0" /></g></g></g></g></svg>